<mxfile host="app.diagrams.net" modified="2022-07-21T10:43:39.677Z" agent="5.0 (Windows)" etag="3InS0YJQ6e1Lk42zHVtm" version="20.1.3" type="github">
  <diagram id="w7LlWlDyLkvgTwCcmOdm" name="Pàgina-1">
    <mxGraphModel dx="1185" dy="620" grid="0" gridSize="10" guides="1" tooltips="1" connect="1" arrows="1" fold="1" page="1" pageScale="1" pageWidth="1169" pageHeight="827" math="0" shadow="0">
      <root>
        <mxCell id="0" />
        <mxCell id="1" parent="0" />
        <mxCell id="CkiNoyqXaFTZ2xthF8Od-1" value="Empresa" style="swimlane;childLayout=stackLayout;horizontal=1;startSize=30;horizontalStack=0;rounded=1;fontSize=14;fontStyle=0;strokeWidth=2;resizeParent=0;resizeLast=1;shadow=0;dashed=0;align=center;" parent="1" vertex="1">
          <mxGeometry x="734" y="466" width="160" height="120" as="geometry" />
        </mxCell>
        <mxCell id="CkiNoyqXaFTZ2xthF8Od-9" value="- &lt;u&gt;cif&lt;/u&gt;&lt;br&gt;- nombre&lt;br&gt;- dirección&lt;br&gt;- teléfono&lt;br&gt;- codigoInterno" style="text;html=1;align=left;verticalAlign=top;resizable=0;points=[];autosize=1;strokeColor=none;fillColor=none;spacingLeft=4;" parent="CkiNoyqXaFTZ2xthF8Od-1" vertex="1">
          <mxGeometry y="30" width="160" height="90" as="geometry" />
        </mxCell>
        <mxCell id="CkiNoyqXaFTZ2xthF8Od-3" value="Proyecto" style="swimlane;childLayout=stackLayout;horizontal=1;startSize=30;horizontalStack=0;rounded=1;fontSize=14;fontStyle=0;strokeWidth=2;resizeParent=0;resizeLast=1;shadow=0;align=center;fillStyle=auto;gradientColor=none;swimlaneFillColor=none;fillColor=default;sketch=0;glass=0;swimlaneLine=1;perimeterSpacing=0;" parent="1" vertex="1">
          <mxGeometry x="738" y="225" width="160" height="110" as="geometry">
            <mxRectangle x="480" y="130" width="100" height="30" as="alternateBounds" />
          </mxGeometry>
        </mxCell>
        <mxCell id="CkiNoyqXaFTZ2xthF8Od-12" value="- &lt;u&gt;idProyecto&lt;/u&gt;&lt;br&gt;- fechaPrevista&lt;br&gt;- fechaInicio&lt;br&gt;- fechaFin" style="text;html=1;align=left;verticalAlign=top;resizable=0;points=[];autosize=1;strokeColor=none;fillColor=none;spacingLeft=4;" parent="CkiNoyqXaFTZ2xthF8Od-3" vertex="1">
          <mxGeometry y="30" width="160" height="80" as="geometry" />
        </mxCell>
        <mxCell id="CkiNoyqXaFTZ2xthF8Od-4" value="Trabajador" style="swimlane;childLayout=stackLayout;horizontal=1;startSize=30;horizontalStack=0;rounded=1;fontSize=14;fontStyle=0;strokeWidth=2;resizeParent=0;resizeLast=1;shadow=0;dashed=0;align=center;" parent="1" vertex="1">
          <mxGeometry x="358" y="230" width="160" height="120" as="geometry" />
        </mxCell>
        <mxCell id="CkiNoyqXaFTZ2xthF8Od-13" value="- &lt;u&gt;codigoTrabajador&lt;/u&gt;&lt;br&gt;- dni&lt;br&gt;- nombre&lt;br&gt;- apellidos" style="text;html=1;align=left;verticalAlign=top;resizable=0;points=[];autosize=1;strokeColor=none;fillColor=none;spacingLeft=4;" parent="CkiNoyqXaFTZ2xthF8Od-4" vertex="1">
          <mxGeometry y="30" width="160" height="90" as="geometry" />
        </mxCell>
        <mxCell id="08bx-MpEAxmyKOZHQuwp-1" value="" style="shape=image;verticalLabelPosition=bottom;labelBackgroundColor=default;verticalAlign=top;aspect=fixed;imageAspect=0;image=data:image/png,iVBORw0KGgoAAAANSUhEUgAAAYMAAALtCAYAAADKcgilAAAgAElEQVR4Xu29fYwdyXmf22vJsqOvK62k5cqacfw10d1wM0yCRAgs4xL+g+Tq7iphEJmL0EaMDMcG4ziGycSWETIOoswkFmKRiW35yhG5QHJlGTMxENrYtUUubhLg2rhRwsTmZhhFGIO2Q8ralWRashRbirzhPW9z36N3aqq7qrv6dHed8xyAGJ5zuqqrnrdO/bqquuv3wL3Jq+AFAQhAAAILTeABxGCh40/lIQABCJQEEAMaAgQgAAEIIAa0AQhAAAIQYGRAG4AABCAAAaaJaAMQgAAEIMCaAW0AAhCAAARYQKYNQAACEIDAfQLcTURLgAAEIAABxIA2AAEIQAACjAxoAxCAAAQgMPQ00aOPPlrcvHmzMhCyU8azzz5bHD16tDh37lyxsbGx51j97vLly8Xa2tr0u6eeeqq4devWvuMfeOCBPenZiYPfAAQgAIERrBmIGJw9e3ZPR+4LjHb6165dK44cOTI9RDp3nxCcOnVqn3i4x54/f77Y3NwsEAR+ChCAAAQGniaKFQMJ1JNPPllsb29PO295L6+tra1pHO1Iw44knnvuueLQoUP7On4RCFdgaBQQgAAEFpHAoHcTNREDCY503idOnCiOHTtWyNW/vaqX0cOlS5dKcRChWFlZ2TdN5AbYikFsmkVsJNQZAhCYfwJZiYFOF0lY6q7oYzp2zev27dvF0tLS/EeaGkIAAhCoITC4GFQtILtrAVoHXQSum+sPicGdO3eK5eXlfesNtBQIQAACi0pgcDGIWUDW4EgnL+Ih/2S6yK4X2ADWiYEKQV36RW0M1BsCEFhcAtmIgdwuKusEN27cKKMlC8JVU0VVYqBC4LtNdXGbADWHAAQgkMndRL5pHb011Dfn7xMDvaMIIaDZQwACENhPIIuRgdx1dPDgwX3TQnp3kTtd5IoBawQ0fQhAAAL1BAYXg7onkGVK6OTJk+UagW/BWK/23fl/Vwx0ismHQheqQ4vONCQIQAAC80xgUDGYZ7DUDQIQgEBOBBCDnKJFWSEAAQjMiABiMCOwZAsBCEAgJwKIQU7RoqwQgAAEZkQAMZgRWLKFAAQgkBMBxCCnaFFWCEAAAjMigBjMCCzZQgACEMiJAGKQU7QoKwQgAIEZERhUDOpsL1O3ltanjoVbF1tQ+IxwUre4kAfd1tfX97i3zSjOZAsBCECglsDgYuDbtVSfGE6xpJS9i3Z3dyt3Nu2iXaR05lU+zV2UizwgAAEINCUwSjGQSqRaUvYhBjL6aGuMI/VLHf00DTbHQwACEKgikIUYSMcpUz1iYC8v7UTVF1krV/W57HG0uro69VF2j5f31kXNN7XkilPVua2QHT16dMrdbrdtLTppmhCAAATGQGCUYqDbU+s0kXTEsmvpzs7OlJl0xvLSHUt1akkFwR0ZuMfrfL/1R7BX6m7n7/ol153bdWNzLTalLOLjvLa2NoY2QBkgAAEIFIOLQdWupXa9QDpXa4OpHbk7zWJ3HrVioMe7axByjLxk11Mxy6mbtlExOHDggPdYe263vDpa0BFK6hQY7RYCEIBA1wQGF4MY20u389QrbV/nrovGVgzcKSALUbe/ttM+PktMLYOklemfunP7Onv7mfxfhaHrgJIfBCAAgTYEFkYMzpw5s2eaqQqWFQ57Sypi0KZ5kQYCEMiFQJZi0HaaqMndOyIKVkCaThO5/szuyKDKvzmXhkM5IQCB+SKQpRhICGRaR9YbdFE5ZgHZHq/z+HL1f/jw4XLqx4qFu+DsLiDXnTs0TcQC8nz9iKgNBOaBQLZioIKwvb09jYPtzH3PGbi3g9pFadca0103aHNr6ZEjR6Zls+ndUcc8NCTqAAEI5E1gUDHIG11a6XnoLI0fqSEAgW4JIAbd8ozOje0oolFxIAQg0AMBxKAHyFWnkI36Ll68yEZ1A8aAU0MAAvcJIAa0BAhAAAIQQAxoAxCAAAQgwMiANgABCEAAAkwT0QYgAAEIQIA1A9oABCAAAQiwgEwbgAAEIACB+wS4myihJTTdilqePLZPJdtTh/Ky3+fuHZ2AnKQQgMCMCCAGMwLrZmv9Dtqc0hWDnL2j29SfNBCAwGwJIAaz5TvNvQ8xKId6E6+ElB1R+/CO7gk5p4EABBoQQAwawHIP9W1L7fM9thvkufadmqfbidupINlQ79SpU9NOXr6rMgVyyzRP3tEJoSIpBCAQIIAYJDQRt+OVrNQBzed7vLKyUmxsbHjP6E4DHT9+fHqsiole8VeJwbx7RyeEiqQQgABiMLs24IqB3RJbp2zU3jI0TeSa51hbzTt37hTLy8t7RgaL6B09u0iSMwQgwMggoQ2E3MtcQ5yYkYF4Mly4cGGfRWfMAnLdNJZ8l7t3dEKoSAoBCDAymF0bWAQxGJN39OwiSc4QgAAjg4Q2MAsxOHDgQHHo0KHp2oMUzzdNVLWAbKvjLkrn7h2dECqSQgACjAxm1wZmIQbyUJosEMtdR1tbW2XhYxeQQ9NEmleu3tGziyQ5QwACjAwS2kATMdD5ejmdXRzW03d1a2ndyEC/c72gc/GODi3CJ4SSpBBYeAKIwUiawN0f+ZGyJA/+2I+Vf3m/l4eGSW6frbo9dyShpBgQyJIAYjCCsMmogFc9ARlNyZrH9evXi7W1NXBBAAIdE0AMOgbaJrvn3/GO4qHt7TLpC088Uf498PTTvJ8Q+NSJE8XDv/zLJQsZFZw+fbpYWlpqg5k0EIBADQHEYGTN497nP1+W6IHXvKb8u+jvRxYeigOBuSWAGMxtaKkYBCAAgXgCiEE8K46EAAQgMLcEEIO5DS0VgwAEIBBPADGIZ8WREIAABOaWAGKQGFr7MJlm5TOXqbO8lHSppjSJ1UhOPovy527vqdt/iKcEz0YkNzEymDEBxCAB8FNPPVWazvi2m7bbWS/Ck7OzEoOc7T0l7uvr65W+1wlNj6QQ6JwAYpCAtMpkRkTCbkONGLSDHOvo1ib3Puw9ZYNBnoloEx3SDEEAMUig7m4o58vKZ3kpV9GuHaU1r9GrbJ+Fpp6jzhYzJn3d/kS+9GLSI0//ykhIXicmD4PpRno6zaX2nFpGNfbR75tYcEqaWDHw8ZROuKqO7ufWgGj7pYf/5Px2zyZ3OtCd+nFHRk35pvhWJzRhkkJgSgAxSGgMbgdhOw+brTsykI7D9UJuYqEpnWSdLaZub1FnwSnl085cp7u0/G56tdO0U19u56dpNA9lox2tr87CxZZD59g1DfaeCY2TpBBoSAAxaAjMd7hvodOuI/jEwGeRqVeH0nFWWWjK+UN+BzHpXeGyZXQ7ep9Dmhx/7Nix6T5BvjUDN09bJ+343R1cRXjkJQuudQvINp1b37a+DVVlkVGQMK8Sex35SPzUjyLEt84itYMmSRYQaEwAMWiMrD6BdkT2yt8nBu60QOx22DG2mL6OWT+T0sv0k6/j293dLUcLsWJgbTwljZ0WkvPIiOPq1au1efpo6hRU3TSRTRdTXjnerhPY//vuCNP8tSx22sedIrNi0IavTS9+FrwgMAQBxGAG1N0rU8TALzAhS80+xSBUFm0mVjjsukGK2CIGM/gRkmVjAohBY2T3E1RNRch3alOpUwVdikGMLWbdyCB2GsOOXKqmidyRgTvaqZt6quOnIWkrBm2nieqmgdxmIkysgCjzNnwRg5Y/QpJ1SgAxSMCpUwfulIvb+XcpBmqLGVpArpuGkvLUWV/GTLv46iQoqxatq9YUbDm0U9Qr7rZiIPmE6ujeWuoeb8ty+PDhcmrNioW7+G3rFzp3nVgzTZTwgyRpEgHEIAnf/Xlxvd1Ss3IXB13Ly1BnEPpezuO7tdTeuVMnBtpZVt1G2VYM3FtLbefpq5OvHJZdihiE6uh7zsC9HdSWxY2z79Zayzzm1lLb8btiYkddiU2U5BCIIoAYRGHyH/SH/+bflIutX/vt314eMNT7z6ysFPKcwkc/+MFi9Zu/efDyDM0j1/PbVoa9Z8IPk6StCCAGrbDd7/iff8mV7M3PPFNOj/Tx/r9NzvN/fvGLZcf/ph/4gbL0P/NX/krxi7/yK8UzL7xQvu+zPJyvG94qYMITe8+WP0qSJRFADFri+81XvrJ46F/+yzL1p77zO2WnueKhD32ol/fv/6t/tXj3H/3RtOR/YnLuj7ziFb2dv+/6zvv5Pv3X/lrxDX/wB9N4Yu/Z8kdJsiQCiEESvvuJ/8fP/3z591Xvehfv4dG4PXTQBMkCAskEEINkhGQAAQhAIH8CiEH+MaQGEIAABJIJIAbJCMkAAhCAQP4EEIP8Y0gNIAABCCQTQAwSEYbsLJtkH8rLfl/1EFeT8+mx2Eu2oUYaCMwXAcQgIZ5dOpiF8gp9n1CNShMZn61n0/P04SiGvWTTqHA8BPYTQAwSWkWXHXQor9D3CdWIdhRrc44+xAB7yTaRIQ0E9hJADFq2CLv3jOtd4NvzR93C7J7/moeklw3b5OU6oMlnvnP5/A+sTabrLVC3Vw72ki0bAckgMEcEEIOEYPp2J5Xs1E7StXFUQZCtK3Tzuqptrt1i1e18qpaTKgCu5aS7w6Zrc4m9ZEIjICkE5oQAYpAQSNtBx9g4yqmk45YdL2X0YHfFDE0DhcTA3SlVj6+ybLT5YS+Z0AhICoE5IYAYJATSdqgx1olyKhUNdwvkVDFwt6xWy8n19fWgzWXbraJ9pjdSR+wlExoVSSEwEAHEIAG8KwYx1ol2X3xrirMoYhDDSEKCvWRCwyQpBFoQQAxaQNMkvmmiOutEtcOUq3jpFF23sjpDk1lPE509e7ZYW1urpeE+24C9ZELjISkERkYAMUgIiG8BOWTjKHcLyQKzdqQ6vZM6MpBqqBD5FqfrbC7bThPJOUMWj9hLJjQwkkKgRwKIQQJs185SO0d7a6ku7OqtnXZqSKeM5C6gFybGNHprqOup7E6byPfuraXiG7y5uTmtjTtCaXtrqcUTa11pzz1me8mE0JMUAnNHADGYg5B2uTXFHOCgChCAQAsCiEELaEMkef4v/+XytA//639d/rXvRQy2vvVbi//joYe837vH836ICHJOCIybAGIw7viUpXthIgRf9YY3lNaaL37mM+VnL3/jG4t7k7/y/s1XrhT/6h3vKA6/5S3e793jF/W91Ft4HXhJUDMIPUWEQG8EEIPeULc/0e//1E8Vr/3+7y8z+PT3fE/xwOTvGz/4Qd634GFZto8IKSEwfwQQg/mLKTWCAAQg0JgAYtAYGQkgAAEIzB8BxGD+YkqNIAABCDQmgBg0RkYCCEAAAvNHADGYv5hSIwhAAAKNCQwqBnJ/fN1ePo1rQwIIQAACEGhFYFAxkP15Tp48Wezs7LQqPIkgAAEIQKAbAoOKgVQBM/NuAkkuEIAABFIIDC4GstnbpUuXplaRKZUhLQQgAAEItCMwuBjoHv+sHbQLIKkgAAEIdEFgcDGQSrDrZhehJA8IQAAC7QmMQgzEXOXixYvFkSNH2teElBCAAAQg0JoAYtAaHQkhAAEIzA+BUYgB00Tz06CoCQQgkCeBwcWABeQ8Gw6lhgAE5ovA4GIgPsBXr17l1tL5alfUBgIQyIzA4GLAQ2eZtRiKCwEIzCWBQcWA7Sjmsk1RKQhAIEMCg4qBLBzfuHGjWF1dzRAdRYYABCAwPwQGFYP5wUhNIAABCORNADHIO36UHgIQgEAnBBCDTjCSCQQgAIG8CSAGeceP0kMAAhDohABi0AlGMoEABCCQNwHEIO/4UXoIQAACnRBADDrBSCYQgAAE8iaAGOQdP0oPAQhAoBMCiEEnGMkEAhCAQN4EEIO840fpIQABCHRCADHoBCOZQAACEMibAGKQd/woPQQgAIFOCCAGnWAkEwhAAAJ5E0AM8o4fpYcABCDQCQHEoBOMZAIBCEAgbwKIQd7xo/QQgAAEOiGAGHSCkUwgAAEI5E0AMcg7fpQeAhCAQCcEEINOMJIJBCAAgbwJIAZ5x4/SQwACEOiEAGLQCUYygQAEIJA3AcQg7/hReghAAAKdEEAMOsFIJhCAAATyJoAY5B0/Sg8BCECgEwKIQScYyQQCEIBA3gQGFYNHH320uHnzppfg7du3i6WlpdHSffbZZ4sjR440Kt+TTz5ZrK+vN07X6CQcDAEIQKAFgcHF4OzZs8Xa2tqeoj/11FPFqVOninv37rWo0uyTSKe+srJSbGxsRJ9M6nTr1q1GaaIz50AIQAACiQRGKQZSpwceeKC4du3aKK+i24iB1Gfso53EtkRyCEAgYwJZiIF0pOfOnSs2NzdL1NqpSqe8vb09xW8/lw+3tram38mV+YULF4qdnZ3ys6q0mqAubz3nwYMHo/KTKaVLly7tKU/GbYaiQwACc0hglGJw/vz5suPXaSIRA9vxamduO3ydWhJBuHv3bnHo0KE9V+KyPqFTUtLR27TPPfdcefyNGzeK1dXVUijs99KZHz16dFoed2TgHm/LIuse8v2xY8f2TYfNYXuiShCAQKYEBheDqgVku14gYnD58uVpZ6qdtzvtYjtpO810586dYnl5uRQHFQp3PUIESF6nT5+eHusuYEs+2rnrmkHTsmTaTig2BCAw5wQGFwPfArLL3F0/cK/U9Xjp0Hd3d8vpGPt/O0WkaX1xPXHiRHm3jx0F+I6zohNTFim/jjrmvD1RPQhAIFMCcysG9or9sccem04RSed95syZ6Vy/G7eqzt0ehxhk2topNgQgUEkgSzGImZqRGus6gdymqlNKVWmVUOh7Oc6KQUxZxnxnFL8NCEAAAkIgSzHQDlnWG/TuIHfRVo7Rz3yLzzZtCeKlO5bk2YGYBWb7nIEcX1cWFpD5sUEAAmMnkK0YqCD4bi11r/Lt4rN+59466h7jfm/n/O26gy5E192qGpqaGnsjoXwQgMD8ExhUDGaN195FNPTWFjx0Nutokz8EIJBCYK7FQKaJrl69OoqHvdiOIqWZkhYCEJg1gbkUAx0RCLwxbQEhC9oXL14c5RYbs25o5A8BCIybwFyKwbiRUzoIQAAC4yOAGIwvJpQIAhCAQO8EEIPekXNCCEAAAuMjgBiMLyaUCAIQgEDvBBCD3pFzQghAAALjI4AYJMSk6TYTdVaZobzs94tmF5oQIpJCAAKRBBCDSFCph7VxR7PndMVgUexCU7mTHgIQiCOAGMRxSj6qDzGQQoZGGMkVScgglUHCqUkKAQgECCAGCU3Edrz6f/FC0Jd6ONt9i9xN8/RYtxO3U0Gyb5LsvKr5Wdc2t/humXK2C00IDUkhAIGGBBCDhsCqpm6kE5aXblynm9lZX2a702ldJy6d/fHjxwvZQVVeKiYhMZg3u9CE0JAUAhBoSAAxaAisTgzcnU+tw1loikSv6A8cOFD6MVtbTt1ew4rBItiFJoSGpBCAQEMCiEFDYHVioJ21b+onVgxkJHHhwoV9TmwxC8h1ow35Lsaic0x2oQmhISkEINCQAGLQENi8i8GY7EITQkNSCECgIQHEoCGwWYtB7DSR79bS0MggxqJT8hiLXWhCaEgKAQg0JIAYNAQ2azE4cuRI2RnLXUdbW1vl6WIXkENioHnlYheaEBqSQgACDQkgBg2BtRUDn1VmVV56da6LxE1uLa3LU7+rs+iUY3QEMbRdaEJoSAoBCDQkgBg0BDarw//w2rUy6z/20nMKQ77Xu5d2f/Zni285ebIsV9/lmRVn8oUABPwEEIMRtAx9RmEERRlNEeyttaMpFAWBwBwTQAxGENzffMUrioe2t8uSvPCud5V/D/z8z/f+/hO/+7vFW9fXy/N+/NKl4i1veEPv5fnUd3xH8Y1f/vIIokIRILBYBBCDkcX7f1y5UpboVZMnkOW1aO9HFg6KA4GFIYAYLEyoqSgEIACBagKIAa0DAhCAAAQKxIBGAAEIQAACiAFtAAIQgAAEJl4ok1v47gGiOwJNzWXqrDBDpdLnAeQ48S3QLa9D6aq+b1p2N5+h7DibljuFeVu2pIPA2AkgBh1HqEnHFNrJNFQ0u8No6NiY75uU3ZdflenOU089VZrzjOG6I5V5DEeOgUCOBBCDjqPWpENN7ZhyEQNB3IRLxyHZk10q81mWjbwhMCQBxCCRfp09pZ3G0dPodE6VFWZo3yDNxz3uxo0bxerq6nRTOz1Ondaq0tnvpcPWfZD0eOvRUFcfOb5PO04ti9RbzIC0nHYPKCmTnT7zMQ/VKbF5kBwC2RBADBJCFbKndK+GtaOyHbe1wpTOSl66W6luGKfHu0V1Rwah9O73rtmNbouhAuFad4bqUyUGbew4bd2l3tLhW+GSqSc1AXJd4lyBs4LmjgxCdUpoHiSFQFYEEIOW4dLOqsqe8pFHHimWlpb25G6vZvUqXsXAl58klo5UXr7FYSsGofSnT58ulpeX93SoWjgpl5RVRwZra2vTcqt154MPPhisT90CsuXknidUdqm7KzT2fZ0YuOG1YqD1tse4MWrZPEgGgewIIAYtQ2avTG0Wvrlxt5PUK1XbMbnTGzbPEydOTEcL9nMrBqH065M9h45OdkStW8T1lb1JfeqmieoYhcouIyXL2zXpsWW0U0E+blVrBlUxatk8SAaB7AggBi1DFiMG2sHovLVrbO+KwZkzZ/Z5H9cVzxWDuvRV/schIXO9l8Vjoao+KWIQqruykymgD3zgA8Xu7u5UIH2CZQXGXTewU3OhGLVsHiSDQHYEEIOWIQtNE0m27pW4pvGNDKosKWPFIJQ+9L2cp25kEFOftmIQUzY5v4jnsWPHyttU7TpA3Z1KIgpWaHyjMTtacmPUsnmQDALZEUAMEkJWZ0+pXsbuYqaczicG2tlZS0rtoKseKPMtINelDy0w14lBTH3aikFs3avc4rTcKliWuVtnKwY+EdJFdCs2CU2EpBDIhgBikBiqultL9S4aPYXcFXRy4hx2fLI9tSyK+jo395ZRn/Wk5ud7ziCUvuqW1NDIQLyZQ/VJEQMVhO2XfB3kva/u0lm74mhFTB9wU0buuoHLPFSnxOZBcghkQwAxyCZUFBQCEIDA7AggBrNjO/Ocn3/iifIcDz/9dPmX993ymHkAOQEERkQAMRhRMJoURTr+l3/91xeTe0WLP5rcYSMv3nfHQwW2SUw4FgI5E0AMMo3e5ydP4L7mpYfDPvM3/obcClS88ad/uqwN79N4/P7ly8VrJ3cs8YLAIhFADBYp2tQVAhCAQAUBxICmAQEIQAACmNvQBiAAAQhAAKcz2gAEIAABCEwIME1EM4AABCAAAcSg6zbQ1NErxY93bB7ITZzXmnBqcmzX8SQ/CCwKAUYGHUe6SceVasHYpPONqWaTsvvy67o8MWXmGAhAoBsCiEE3HKe5NOlQEYOO4ZMdBCDQmgBi0Brd/YR4IJ+burDZkYGKomzjra+6bafrvJ9dgY31iU4MLckhsFAEEIOEcOOB/Gzp2aAeza4YCFr1CqjzU47xZrbbfku+6hOtu5TabasTQkpSCCwsAcSgZehD5jaL6IHsioG7BbX6KYv/s17tC6cYb2YRA5+ngoQvdbqtZRMgGQTmigBi0DKcMbaXmvWieCD7ponEB0FfdrrHNaSJ8WaWfHw+zixct2zEJIOAIYAYtGwOMWIQ8tedNw9kxKBlYyIZBEZAADFoGYTQNJHvKnbePZDbiEHV1I8Ni44imCZq2VhJBoEIAohBBKSqQ/BAfqBEo4u7bcRAppGaeDPLsdbnmQXkhAZMUggwTdRdG8AD+Suezm3FQKLRxJuZW0u7a7/kBAElwMgg47bw++9/f+l09trv//6yFov+PuNQUnQIDE4AMRg8BO0K8Lmf/Mnic+99b+lw9rp3v7v8+9l//I8X9r0KYjuapIIABBCDTNvAf/+mbyrUp/eFd76zHCEcePrpsjaL9l78oL/+1q1MI0mxITAOAojBOOKQVIr/+V//a5n+FX/yT5Z/F+19EjwSQwACJQHEgIYAAQhAAAKIAW0AAhCAAAQYGdAGIAABCECAaSLaAAQgAAEIsGYwgzbQxNxGTj9PtpfuhnwWr+5g2pTPDEJElhCAgIcAC8gdN4smnV3q1std79bZpOw+bCIGZ8+eLdbW1jqmSnYQgMCsCSAGHRNu0qEiBh3DJzsIQKA1AcSgNbr7CbG9/IrtZczIwOdpUGWNmRgakkMAAg0IIAYNYLmHYnu51/ayjRgI0yprzITQkBQCEGhIADFoCEwPD/kZLKLtZdUC8rlzXxk9uCODOmvMlqEhGQQg0IIAYtACmiSJcTrTrBfF9rLNyEC9EJRVkzWXlqEjGQQg4CGAGLRsFjFisGi2l4hBy8ZEMgiMgABi0DIIoWkiydY1b59320vEoGVjIhkERkAAMUgIAraXe20vEYOExkRSCAxMADFIDAC2l1+xvUQMEhsTySEwIAHEYED4qaf+8m/8RpnFV3/Lt5R/c3+fyoP0EIBAewKIQXt2g6b88u5uIQ5f8nr4mWfKv88//ni27ycNsfjkpD7LH//4oFw5OQQWlQBikGnkb7/1rcVrT58uS//7Ez9keb32b/2t7N//b2fOZBoRig2BvAkgBpnG78Xnny9e9vDDZek/d/Fi+Vc70tzfZxoSig2BrAkgBlmHj8JDAAIQ6IYAYtANR3KBAAQgkDUBxCDr8FF4CEAAAt0QQAy64UguEIAABLImMKgYyKZkt2/fLpaWlrKGSOEhAAEI5E5gUDGQvXpOnjxZ7Ozs5M6R8kMAAhDImsCgYiDkxPpxfX29OHLkSNYgKTwEIACBnAkMLgbPPvtscenSpWJraytnjpQdAhCAQNYEBheDO3fuFMvLy6wdZN2MKDwEIJA7gcHFQADibpV7M6L8EIBA7gRGIQay9fHFyZYKrBvk3pwoPwQgkCsBxCDXyFFuCEAAAh0SGIUYME3UYUTJCgIQgEALAoOLAQvILaJGEghAAAIdExhcDJ566qni6tWr3FracWDJDgIQgEATAoOLAQ+dNQkXx0IAAhCYDYFBxYDtKGYTVHKFAAQg0JTAoGgrGCIAACAASURBVGIgC8c3btwoVldXm5ab4yEAAQhAoEMCg4pBh/UgKwhAAAIQSCCAGCTAIykEIACBeSGAGMxLJKkHBCAAgQQCiEECPJJCAAIQmBcCiMG8RJJ6QAACEEgggBgkwCMpBCAAgXkhMJgYyMNm29vblRxPnDjR6qnk1H2Ohk6vQHgYb15+YtQDAnkQGEwMLB7dn6iLZw5SO/PUsHVxftmi49atW8XGxkZqcUgPAQhAIIoAYhCFKf6gLsRA8rh9+3axtLQUf2KOhAAEIJBAYNRiIJ3iuXPnis3NzbKK0kHKS2wy7UuO0atoSXP58uXi1KlT00PsiENHIXXpr127VhrthI6VPMSY5+bNm2V2el5NL5+502G2k/fV72Mf+xie0AkNmqQQgEA7AqMXg4MHDxY7OzvT2rlX3s8++2xx9OjR6bYW8r0Kh1xZ+763nXXd96FziRAcP358KkTa8Wv+8l5eW1tb5V+Z/hGRUkGQ/N36SZpjx44Va2tr7SJKKghAAAItCIxeDORqWztGuVJ3p07c9QbfNI10sCsrK8Xp06ej0z/yyCO1xwrrQ4cOFffu3Zti17KIGBw4cKD83p3u0bLISEZHMbbj72KaqUU7IAkEILDgBEYvBvYq3sbKTs/I53qcb/M7n2dCXXr3nL5jpZO/cOHCnlGLlEM7c/m/jFisWMhn58+fL3Z3d8vRgq/jZ/O+Bf9FUn0IDEQgOzHQjlnXCezVuMzzh8QgJr2KQd2xiMFALZbTQgACMyGQlRjo/L692hZPBJmOsSMD98pep2YOHz6872q9Kr3vyt4eq9NAqdNEblmZJppJOydTCEAgQCArMdDO2L0jx50mkvfaSauASJq7d+/um8fXBWdXTHxz/u6xMnKQBWBdIPYtIMudRroA7ltA9gkXC8j8biEAgb4JZCUGOueut5rKe7lt9OTJk9O7eny3llrxkDn7UHrtoEPHyvlTby11xUDE68yZM/vWIvpuGJwPAhBYLAKjEIMxIR/DAi4PnY2pRVAWCCwGAcTAxLnLbTFSmg/bUaTQIy0EINCGAGLwEjWdEmq7QV4b+HVpZPrp4sWL5ZPQvCAAAQjMmgBiMGvC5A8BCEAgAwKIQQZBoogQgAAEZk0AMZg1YfKHAAQgkAEBxCCDIFFECEAAArMmgBjMmjD5QwACEMiAAGKQEKSmW0fIA2VVdweF8tLvL126hF1oQsxICgEI+AkgBj21DLt1dZtT+sSiy+ciQmLUpsxN0gx9/iZl5VgIzCMBxKCnqCIG9aARg54aIqeBQAUBxCChadgOTP8vHgb6so5n29vb5ceus5ke63aGoT2PJF3VyGAR7ULxi05oyCSFwIQAYpDQDFwxkKx8u6VKRxUaGdi8QnaaWuQ6MVg0u9CEMJIUAhBADNLagCsG1qJTcrab3sWKQcgnwS5A14nBotmFpkWS1BCAACODhDbgmyaynbX9PlYMQg5qsWKwaHahCWEkKQQgwMggrQ3kJAYxdp/iDbG6ujqFYr2jY9IPaReaFklSQwACjAwS2sAsxKCraSI7MlgEu9CEMJIUAhBgZJDWBmYhBjINFLLTjFlAtmKwCHahaZEkNQQgwMggoQ00EQO9OpfT6R1H9tRd31rqrhmELDxztwtNCCNJIQABRgYjagMvvni/MC972f2/mb0v75z6tV8rVv/0n+6n/CMKHUWBwDwQYGQwgihKR8qrPQHfSKt9bqSEwGISQAxGEPfn3/GO4qtXVop7k7J8+eMfL0QaXv7Wt5YlG/v7jWeeKf7ZrVvF8Un5P/jYY72V96snfN7wEz8xguhRBAjMBwHEYARx/MKHP1y8+uTJsiSf+YEfKP++8aWOjvf1PEYQPooAgbkggBjMRRipBAQgAIE0AohBGj9SQwACEJgLAojBXISRSkAAAhBII4AYpPEjNQQgAIG5IIAYzEUYqQQEIACBNAKIQRq/wj5ZrFn5dgyt8z+WdLN0+rJGOba67pbb8p0cK6+dnZ19ZOzOq/JE8+7ubrG1tZVIkOQQgMAYCCAGCVGQXT1PnTq1Z3sJ9RiwHW1o++qEIkQllQ7+7Nmzxdra2p7j1RFtY2Nj+rm7O6lNgBhE4eYgCGRJADFICFtVJysiceHChenV9VjFwGeOoyODmzdvFu6W1ohBQmMhKQRGTgAxSAiQu7uoLyvpQF3/Y59H8fLycqHTS3V+ynqOGI9ke6xvZCDfu0KlAnf16tVCBMFOFyEGCY2FpBAYOQHEICFA7nqBuJT5jNndDlc6+zqPYt2rqMpPOdYjOUYMrIGNHG9HO7qTqU4vIQYJjYWkEBg5AcSggwD5Fmjt5mk+MfD5JduRQZWfshT30KFD3nWKOqvLqpFBnRio2Ol0EWLQQWMhCwiMlABi0HFg1EjGXvn7xMDtuGO9EZp4JKeODHQaSaeLEIOOGwvZQWBEBBCDGQTDdRYbsxhUrRno1JC9O0rWEVYmu5PK3UfcWjqDhkOWEBiQAGLQEr7PSlKz0g5U1xC6FIMmHsmhkUHV3UTulJJdGzl37hxi0LLNkAwCYyaAGCRER+8Ucs1V3M6/SzFQj+Tjx4+XnbJO5cgdS03XDKqeM/CtL2hdEYOEBkNSCIyYAGKQGBx98Mxm4y7+uv7HvqeNY9cMRAzk5bu11H0uwI4MZN7ffVU9gewTAx1FIAaJDYbkEBgpAcRgpIFpUizfdE+T9BwLAQhAADHIrA3oWoUdBchi7pUrV7z7CWVWPYoLAQgMRAAxGAh8ymndqSn3AbaUvEkLAQgsJgHEYDHjTq0hAAEI7CGAGNAgIAABCECgQAxoBBCAAAQggBjQBiAAAQhAYGKwNXlg6h4gIAABCEBgsQkgBonxz8H2MrGKrZLP0sazVYFIBAEI1BJADBIaSC62lwlVbJ0UMWiNjoQQGIQAYpCAPRfby4Qqtk6KGLRGR0IIDEIAMUjAnovtZYyNprXnFCTWtc2XXp6Avn79enHq1KmS4IkTJ4qtra0pTXVJ0+/lC/vUtM/6U1zi6sqRECqSQgACAQKIQUITycX2MmSjKR2wvLQz1+kvFQQ3vWx/sbm5WdiN7tyRgKbRPFzXNJ/1p1sO39YbCeEiKQQgUEMAMeigeYzd9tL1MpYqy2dypS4vsdF0/ZvttttuR68du2vteezYsUJNcXzTRG6eVky043dvbhPhkZdu191BuMgCAhDwEEAMOm4WY7S9rNsyW6p/9OjRPZ7K8pl1MosVA3VBs2Kzuro6JWz9lqvy9IXDnYLqOGRkBwEIyAUizxl03w7GZnuZixicOXOGnVe7b47kCIEoAohBFKb9B+Vke1knBmqj2cU0kTsycJ3X6qae6ni2DBHJIACBBgQQgwaw3ENzsb0MOatJPcQJbWdnp6yibwHZduxVawauGEheugagaeyitE8sbDl0uknd1RJCRVIIQCBAADFIbCI52F6GxEAQxNxaqpabsWIgC8T21lLf7aqap4bBLYfPmjMxZCSHAAQ8BBCDOWgW2F7OQRCpAgQGJoAYDByApqfH9rIpMY6HAARiCCAGMZRGdgy2lyMLCMWBwBwQQAzmIIhUAQIQgEAqAcQglSDpIQABCMwBAcRgDoJIFSAAAQikEkAMUgmSHgIQgMAcEEAM5iCIVAECEIBAKgHEIJEgtpf3d0DVp4mr/u/DjAFOYuMjOQQ6JIAYJMDE9vI+vCYCYHEjBgmNj6QQ6JgAYpAAFNtLxCCh+ZAUAqMigBgkhCMX20vdrsJW1W7+VmVrab0IYvcuqhslWBMg3bfIblZXdw53Oo7N6xIaLkkh4CGAGCQ0i5xsL327jqonsVpU6nvXojJkRxmzZiBCcPz48aljmXb8Wq466827d+/uc2Njiimh4ZIUAojBbNrAmG0vZVQgRvP25W5s57PFVO8BcRkTW8w6O8qQGKhngs1DyyBiEPJU0DK4nguziSa5QmAxCTAy6DjuY7S91Cq6ouW7A0iPVYvK9fX10hbT91I7ypAYSCd+4cKFfS5mmk7yDllv2ikkbDA7brRkB4EJAcRgBs1gbLaXKgI6z26vysVPwDflYsUgZEfZhxhomOzUHOsGM2i8ZLmwBBCDlqHPxfbSZ0SjZbcjA9dExp0mqpuiCYlB6jTRxsbGvihJvUIi1TK0JIPAQhJADBLCnoPtpU+0dMHYioFg0A7ftah0bTHlWMlDr8xDYiCjD/fOK98CcpX15sc+9rFyGskKkrvgnBBGkkIAAkwTpbeBHGwvz58/X2xubk4rK3cNnTx5cnp3j3bs9hh3JFBnRxkjBnLylFtLXc6sG6S3XXKAgCXAyGAO2kOq7SW3ac5BI6AKEEgkgBgkAuw7+SxsLxGDvqPI+SAwPgKIwfhiEixR17aXiEEQOQdAYO4JIAZzH2IqCAEIQCBMADEIM+IICEAAAnNPADGY+xBTQQhAAAJhAohBmBFHQAACEJh7AojB3IeYCkIAAhAIE0AMwow4AgIQgMDcExhUDOSWRrYlnvs2RgUhAIEMCAwqBvIAlWyLsLOzkwEqiggBCEBgfgkMKgaCVfa8kT3zZTMzXhCAAAQgMAyBwcVAdsi8dOlSsbW1NQwBzgoBCEAAAsOb2+gma6wd0BohAAEIDEdg8JGBVJ29cYZrAJwZAhCAQNkPT0zK7w2NQva5v3jxIusGQweC80MAAgtLADFY2NBTcQhAAAJfITAKMWCaiCYJAQhAYFgCg4sBC8jDNgDODgEIQGAUawZi1HL16lVuLaU9QgACEBiQwOAjAx46GzD6nBoCEIDASwQGFQO2o6AdQgACEBgHgUHFQBaOb9y4Uayuro6DBqWAAAQgsKAEBhWDBWVOtSEAAQiMjgBiMLqQUCAIQAAC/RNADPpnzhkhAAEIjI4AYjC6kFAgCEAAAv0TQAz6Z84ZIQABCIyOwKBiIBvU3bx5sxLKCPbQm0nAeLZiJljJFAIQSCAwuBicPXu2WFtbS6hCXknlietbt24VGxsbeRWc0kIAAnNNADHoObzybAVGPj1D53QQgECQQBZioLuaHj16dFoheVjt+vXrxalTp8rPTpw4sWd/o6o0+oCbfH/u3Llic3OzTK8dtEzhbG9vT89jO26x6LRlkPT2Cl833bPU7TFYfAbbIwdAAAIDEchGDISPriGcP3++7MQvX748nWJyt8GW9/LSJ5y1I9f38v3BgweLnZ2dKXoRAnmpH7Nsl3Ho0KEyD3nJ/604+M557dq1qUmPe07J/9ixYws1LTZQu+a0EIBAQwKDi0HVAnJdR6+drF1gdjta6ahtHsJFjllZWSmv5t3vteN3F61FeHTk4YqBZS2jgqWlpT34daRgBciKRcNYcTgEIACBmREYXAxiFpDdK/AqMdCOXmj5DHPsdtlVefpI6xSUnUJyp6VsOvcuKRUA9mKaWTsmYwhAIJEAYnDkSIlQBObMmTN7po2q2Nq1A7smoCKgn+nIADFIbKUkhwAEZk5grsUgNE1kp2x0mqjJnT5WQHyjFc3TigHTRDNv05wAAhBoQWCuxUB4aOeunbW+900jyTSQrGHYRWW96+jw4cPlnURWLOyCs09MdBFbBYAF5BYtlCQQgEAvBAYXg7onkKsWXmPXDOyto1YYqtYU5HP31lI7upA1B72VVY511w30LieNnJT/5MmTxfHjx8tF6yZTUb1En5NAAAIQeInAoGIwyyj4rvxneb7YvHnoLJYUx0EAAn0SQAz6pD05F9tR9Ayc00EAAlEEEIMoTN0eJHcdXbx4cfpwWre5kxsEIACB5gTmVgyaoyAFBCAAgcUlgBgsbuypOQQgAIEpAcSAxgABCEAAAgViQCOAAAQgAAHEgDYAAQhAAAKT/dwmu3TeAwQEIAABCCw2AcQgMf6u4Y1k59t/SI478tKmeL5T9vGQnPsEtZTDvRaw5bBmPa6RTyI2kkMAAiMjgBgkBEQ7V9uhagdqt7GwPgoJp0tKKs82iJmPGvdIZlr+qs35ZHuN3d3dPWmSCkFiCEBgtAQQg4TQSAfr82OQTvbChQvTDe+GFoO6Tt11d7M4EIOExkFSCGRGADFICJjvatvNzm58pzabPv/l5eXl6fSSz7/ZnXqyBjoyCpEN9Kq2xw5NQVmXNj320qVLe7ygddPABFwkhQAERkwAMUgIjrteUDXd4o4MfP7LtsPWra91+sndfluEQHdCleKr4PjEoKlPgy0HI4OExkFSCGRGADHoIGCuzaVk6fozu5acrvGOKwa+7+XqXF7ixexbp0AMOggmWUBgQQkgBh0HXq/EdUpIr9xD/syuGLgdu34vow+7HqHFr5oK0gXtWAc3RgYdNwiyg0AmBBCDGQTKnZrxTRNVdfZy+6mvY28rBlK9ujUDt6yIwQwaBFlCIAMCiEHLINXNxbtX412KwYEDBxpNE0n16ub+5bsrV65M73xCDFo2CJJBIHMCiEFCAHXh1n1wy+38uxQDGTk0WUC200hVNp32TiHEIKFBkBQCGRNADBKD53uq1138tXcdiXDUTQOFpon0KWbfraWh2z9dj2apet0TyNxNlNg4SA6BjAggBhkFq6qoOi0VEoM5qCpVgAAEZkQAMWgJVp8FaJk8u2TsZ5hdyCgwBBoRQAwa4RrHwe7UlL2NdRwlpBQQgEBuBBCD3CJGeSEAAQjMgABiMAOoZAkBCEAgNwKIQW4Ro7wQgAAEZkAAMZgBVLKEAAQgkBsBxCC3iFFeCEAAAjMggBgkQs3J9jKxqo2ShzwUGmXGwRCAwMwJIAYJiHOyvUyoZqukiEErbCSCwGAEEIME9LnYXiZUsXVSxKA1OhJCYBACiEEC9txsL48ePTqtrbuFtrXnlIOs/4HPhlO2vrh+/XpptykvdxM8SaN2nHpSd0O8c+fOFZubm+XXer66ciSEiqQQgECAAGKQ0ERysL2U6oVsNKUDltfW1lb5V6e/tIN20+uGd3ZDPnckoGk0D2WlguCz/nTLoduEs+dSQiMlKQQiCSAGkaDqDhuz7aWKQchG03VCs9tuux29duyuteexY8eKtbW1EpVvmsjN05ZJO353DyQRHnltbGx0ECmygAAEqgggBh23jbHZXlZ1zNpZy/cyfeTrhHd3d8vRQqwYuNae7hW9jDiuXr1am6cvHO4UVMchIzsIQEAu4CadwD1IdEsgB9vLMYrBmTNnpo5r3UaE3CAAgRABxCBEqOL7nGwv68x01Eazi2kid2TgW6TWY9wy1fFsGSKSQQACDQggBg1guYfmYnsZclaTety8eXN6Ve5bQLYde9WagSsGwksHnprGLkr7xMKWQ6e45K4j1gwSGipJIRBBADGIgFR3SA62lyExkPrF3FqqlpuxYuDeWuq7XVXzVMZuOdyF78RwkRwCEKgggBjMQdPA9nIOgkgVIDAwAcRg4AA0Pb3v3nu5/fLKlSssvjaFyfEQgMCUAGKQYWPA9jLDoFFkCIycAGIw8gBRPAhAAAJ9EEAM+qDMOSAAAQiMnABiMPIAUTwIQAACfRBADPqgzDkgAAEIjJwAYjDyAFE8CEAAAn0QQAwSKedqe2kfRBvaiGbo8yc2AZJDYC4IIAYJYczZ9pIOOCHwJIXAHBJADBKCmrPtJWKQEHiSQmAOCSAGCUHNxfZSqmgNeHTPIN0ozp0yamNHGbKrbLL3UcyxdRaeCSElKQQWlgBikBD6XGwvRQiOHz8+3flTO9sqMTh48OCerS1CdpTu9+5GdqHvrRg1teB0d0NNCCdJIbDQBBCDDsI/ZttLn52kbmxXJQZN7ChPnz5dLC8vTw3tLU45j7zqvl9aWpo6qcV6K1RZeK6urnYQTbKAwGISQAw6jvvYbC9lkfvChQv7NrGrupuoyuLSh0nsKNfX1722mXq8b7trN68U1zXJi/WPjhsx2S0kAcRgBmEfk+1lF2JQZ0cZ6uxD39vOXP7f1I8ZMZhBAybLhSSAGLQMey62l22miawDWciOMvV725nHThO5DmmMDFo2YpJBwBBADBKaQy62l+5dT6EF5KZ2lE0XmF1PBncBuYkFJyODhAZMUgggBt21gRxsL6W2TW4tdcVA0ofsKN3vb9y4UdgF3brv3Sv7mFtLrV0mI4Pu2jM5LS4BRgZzEHtsL+cgiFQBAgMTQAwGDkDT02N72ZQYx0MAAjEEEIMYSiM7BtvLkQWE4kBgDgggBnMQRKoAAQhAIJUAYpBKkPQQgAAE5oAAYjAHQaQKEIAABFIJIAapBEkPAQhAYA4IIAZzEESqAAEIQCCVAGKQSpD0EIAABOaAAGKQEMSmT77Kpm32yVn31KHv7fFNzq0PpUl6Ma7Z2NhIqDVJIQCBeSSAGPQUVdliYWVlpbIjDn3vFrOJGJw/f77Y3d0ttra2eqotp4EABHIjgBj0FLFQZx/6HjHoKVCcBgILSgAxSAi8zyDG581rN15zLSXl9FXfN9mwrerYqg3iYvKu8xkOeR4nYCUpBCAwAAHEIAG6KwaS1b1798ocXW/e0JW/+31oW+g632B3/yJ3mijVZziUPgEpSSEAgYEIIAYJ4F0xqPPmbSIGPkMaKaZ06vKSBWA9txrCqAhpdeyxVgyqzGhs+STvqrpI/ocOHdrneRyqXwJmkkIAAj0QQAwSIFf5CGuW7tV77AKyjip8RRPfYVkIdn2D6461YlBlQ2mP8S1ON/EpTkBKUghAYCACiEEC+FmKQZ3vsBTZds6hYxGDhCCTFAILQgAxSAj0rMQg5CtsxaDKN9hWq800UZXPcIxPcQJSkkIAAgMRQAwSwM9KDKRIMgdvvYBVAPShsTrfYPdY3wJyis+wWzb1V7h9+3axtLSUQJSkEIDAUAQQgwTyTcTArgO4i71SBN/3db7DId9guwDse+gs5tbSOp9hbi1NaDgkhcAICSAGIwwKRYIABCDQNwHEoG/inA8CEIDACAkgBiMMCkWCAAQg0DcBxKBv4pwPAhCAwAgJIAYjDApFggAEINA3AcSgb+KcDwIQgMAICSAGIwwKRYIABCDQNwHEoG/inA8CEIDACAkgBolB8W0q527lIKcIWVo2cS5rWuRQ3vb7pq5ooXo1LSvHQwACwxBADBK46zYM9oli9Ru2TwCPfXvntmIw9nolhJakEFg4AohBQsgfffTR4uzZs8Xa2tqeXEQkLly4UOzs7JSfj73TRAwSGgFJITAnBBCDhECKGIiNZZ3RvM/SUjpf2XBuc3OzPLts8La8vFzo9JJ2znW2k3Ju2WxOXjIKOXXq1DS9WyV3mqgurc/XoImVZ2jPo6p6Y7GZ0BBJCoEOCCAGCRDd9YKqXTvdkYF0zq4XchMLTenMjx8/Xjqe6chje3s7SgxCaV0xkPxjrTxjrDp99Q6dQ75XwWWH1IQGS1II1BBADDpoHvZKW7Oz6wg+MfDZStqRQch20rdO4Vu4lvLUWWTqGoemdcUg1soz1qrTl1+orq7Ijn3arYMmRRYQ6J0AYtAxcu0U7RWwTwyqzGNk2+g620npGO16hBa/7o4h/S4mbaz9pZTT1quJVWfd1thWvOT/Mn3k83fe3d2tnZ7rOKxkB4G5J4AYzCDErlPZoohByH6zTuR8AoEYzKBxkiUEKgggBi2bRp01pU696PRGl2KgtpN9TRPVjWBsvZpYdcaODLDYbNk4SQaBFgQQgxbQNIneOeNOY7idf5diIB1paBHYrZK9InfvgNI6VK0ZxIqBnLOJVWfd9FadpScLyAkNlqQQqCGAGCQ2D+2cbDbugqhraRmaLgl9L+fy3R5648aNYnV1dV+NUm8trbqST7XqlILG1BWLzcRGSnIIRBBADCIgjf0QnZaqEoP/9YUvlFX4qle/uvyb+/uxx4PyQSBHAohBZlHTuXnb8csdQFeuXJk+8WyrdG8iBJ98/PHyo4effrq8Es/9/QsnThQP/9IvZRY5iguBcRNADMYdH2/p3Kkp90Eum+h3Dh8uvvYv/IXyoz/81V8tHpj8/dq3vz379w++970ZRo4iQ2C8BBCD8camk5L9wUc+UrzyscfKvO6++93lX+1Ic3/fCSAygQAESgKIAQ0BAhCAAAQQA9oABCAAAQgwMqANQAACEIAA00S0AQhAAAIQYM2ANgABCEAAAiwgp7aBkLewm3+dX3AoL3dLCTW2cc9R5amQWteu0uOZ3BVJ8oFAtwS4m6hbnpW5pe7B74pBld2mOJ65eyX1VMXgaVIZBE/AARCAQGsCiEFrdM0SpnaEMWJQzvtNnjCuMrlpVuLuj05l0H2JyBECEFACiEFCW3CtKqUTbuIXbE/dZDM52aTONzJwxcDntby0tFTuLio2mfqyW23LZ9bTWZ52tmY6oU3j6vLWc7rGP76yJISFpBCAQAsCiEELaFMlNVfh0vHKK9Yv2D2te+Vf53FcJQayR9Hm5ua0DD6vZden2G4Jfffu3eLQoUOFXXew5wp5HLvf666mysS3tbcVH7anTmiMJIVAIgHEIAGgOzKI9Qv2nbKJT7HPc1nztOsFkqctU5UBje2kbZ2sSY8Khc+CUs59+vTpYnl5eY+QaJkkHx2RrKysFBsbG0VMWRJCQ1IIQKAhAcSgITB7uG+aqGrv/9B8eROf4rppoqryyefulboea32P7f/tFFHI43h9fd3rV2zL4/NMxt84oQGSFAIdEkAMEmDOoxjYK/bHJhvc6dqEiEGdx3GV0CAGCQ2MpBDokQBikAB7FmIQ43HcdmQQOzWj+cttqrp+EPI4Dn0vmGM8k0MjqIRwkRQCEKghgBgkNI9ZiIF6HMsdN3pXj+tT3FYMtEOWB9Z2dnbKmvsWbfUz1ych5HEcs8CsawaxZUkID0khAIEGBBCDBrDcQ5uIgc8v2ObX1a2ldXnqd6HbQ/Uq310Q1w7c3grqHuPmbR3ZYjyTx/4EdUJzISkERk0AMRhJeD77j/5RWZLX/d2/W/4d8r3eRbTzwz9cHHzJUazv8owkLBQDAgtDADEYQailo/3Chz5U3JuU5TXf9V1liYZ8/6H/9J+Kq5MFYe0HHAAAIABJREFU45+ePKA2RHlUEEcQGooAgYUhgBiMINR3Jg96PfzMM2VJnn/iidKn+MDEvL7v93c++cniG9/2tvK8v/kf/kOx9OY391+exx8vlm7cGEFUKAIEFosAYjCyeL/4iU+UJXrZW95S/l209yMLB8WBwMIQQAwWJtRUFAIQgEA1AcSA1gEBCEAAAgViQCOAAAQgAAHEgDYAAQhAAAITL5TJRmFyR+MgL3nQKvSQUdUOnb4HorQS+gStrZTvPJK3vPRpXHu83RahSRnqdhSV/Otwa7nPnTtX7uwZMqrJ0Qoz1vZSt+Oui7PwrOPtmvzExqbuOC1PF3mllC+m3db9HmI2CNTnTULtdpDOo4OTxrbFDk6VRRaDioE86Xry5ElvZ6z0qrZeUOMW6TTtS3+ktrHrE7Xaydq8ZWsG93P53hUDn5mMrwyxW0W4rUN/ePaJ3VALinE/U4EZUPOn1Wi675DGra7sVbz1aWfLMzY2McfFHKNi5Ws7qeWLabd6fru1iXzm24LE7lZrReTq1aulEdJY3fNCv5Gq75u2xbbnySndoGKgna5sf2y3fnY7d9+Pydd5uq5cNh/f8ToykB+W2wnHiEFVnlUuZHUNI2ajNzd9jBhImtAIo68G2/QHaP0UxA/B96rrlN3zpXbgMe3SLeOsyifnCbVbXwev5XP3kfIdq2W/detWsbu7u8cBr682M6vzNG2LsyrHmPIdXAzkCunSpUuVDa3JjynU6bkNXvOWqx+7eZuKlG6q1qQMsR2O2wh8YtDVfkVuPrnYXiIG/q4itt2Gfg9qOiRncX8btj36HPCqLkys7au9wMKCdUzdvr8sg4tB6Adf17nKSEA6ctndM5SPVN/dk9/m7bqCxYwMJE9bBnk/KzGQfLuwwszJ9jJm6mxRp4l09FnVbk+cOLHPwrSuO3LFwHfhZNufTwzkMxUAdxoMC1bEIIpA3RVMrBjETLO4Biw2b7fxpoiBjDJ8r7rFUN/8eNdWmDF+BmOzvZTy1K2j1C3kuuliFoZV0H0xtGtLqXnZjlPbSpM8remQXI1rXbXdpoqB+5sMrT25ouSOrrFgjeoKBz1o8JGB/vguXrzoXTfoWgysW5ebt92vP0UM2qwZyJWYvOyCeNdWmDnaXvq42F+MG0Oto2/BM3bUFnNczDG+keIsyudrt3We1L4ex44EfO1ER2lVC8m+Czo7ana/z7EtDtpT93DyrMXAXQQKzZFWrRmsra2VqLXByxW8TD/1tWYg9Th27Fih5dC4DyEGY7S9dKfi6sRAp+7Epc03MogR6piOPuaYqmlDvcruqnxV7bbu9+COEu1vw11TsrxlxKGmS/bzWYjBGNtiD33yYKcYhRi0mSbq6m4it3OwBiw6LVD1w+/ybiJfh9d0mijU0cVME9kObAy2l6FOt+p7vVPMPkMSystO14RYpubVdfl87bbubiL57sqVK9PbuvXY973vfcXy8rJ3as53S6q9cPEZHekFlfsbz7EtDtZL93TiwcUgtPBb9aOres5Ar2pinzPw/eg1j5AYdPmcQd2aQZdWmK515ZhtL1MWkH1ubakdeGhE4vvNVp1zFuVz262UR9qoezWvD/TZkYmKgXTeViRsnewIxDeKlWP14U4VJ33vu+DLqS321B8PeprBxaBuCkCvUn2LeXWLsfYqSelWPYFc9wyDFYPYMtQtAkpZqhZDZ3lrqdvCcrG9TBEDqbN2ejrPHRubGNHoIq+uy6e83Ico9Ty2HVQ9gSwPmNX9tnw+2Co6ct7Nzc3paexvrmr0n0tbHLSX7unkg4uBNIa6h8564jD4aXwjpC/95/9cGt284s/+2bJ8fb3/1EMPlVMFv/FLv1QsHzjQ2/ndIMSIweCBowAlgdB6XVtMoZmDtvmSbj+BQcUgZjuKRQma2/F9aWI9+cI731nuZfTmiQuabCAlLmiTD2b+/ur3fm/x7L//98WP/5f/0sv5yvpN6iX1++MTtzV9xdwuvCjtY+z1nJUYhGYOxs4lp/INKgahe8hzAtlFWe1Gdd8zuaPpwZf2Xfrdd7+7vPJ68Md+rDzNrN5/cXKe//2Hfqg8x//3+tcXB//JP5np+Wx95ERveO97i9dM7gKSl05t+PaN6oI1eXRLoGsxsJvkhTaz7LYmi5vboGKwuNib1fzzE2GQl3aU8/6+GR2OhgAEuiCAGHRBkTwgAAEIZE4AMcg8gBQfAhCAQBcEEIMuKJIHBCAAgcwJIAaZB5DiQwACEOiCAGLQBUXygAAEIJA5AcQg8wBSfAhAAAJdEEAMuqBIHhCAAAQyJ4AYZB5Aig8BCECgCwKIQRcUyQMCEIBA5gQQg8wDSPEhAAEIdEEAMeiCInlAAAIQyJwAYpB5ACk+BCAAgS4IIAZdUCQPCEAAApkTQAwyDyDFhwAEINAFAcSgC4rkAQEIQCBzAohB5gGk+BCAAAS6IIAYdEGRPCAAAQhkTgAxyDyAFB8CEIBAFwQQgy4okgcEIACBzAmMTgyufs3f9iI99qX3ZY6a4kMAAhAYLwHEYLyxoWQQgAAEeiOAGPSGmhNBAAIQGC8BxGC8saFkEIAABHojgBj0hpoTQQACEBgvAcRgvLGhZBCAAAR6IzA6MdCa611F3EXUW1vgRBCAwAITQAwWOPhUHQIQgIASQAxoCxCAAAQgUCAGNAIIQAACEEAMaAMQgAAEIFAgBjQCCEAAAhBADGgDEIAABCAwIcCaAc0AAhCAAAQQA9oABCAAAQgwMqANQAACEIAA00S0AQhAAAIQEAKsGdAOIAABCEAAMaANQAACEIDAiEcGBAcCEIAABPojMNppov4QcCYIQAACEEAMaAMQgAAEIDDeNQNiAwEIQAAC/RFgZNAfa84EAQhAYLQEBhWDRx99tLh586YXzrVr14ojR450Bu6BBx4oNE/7/65O8OSTTxbr6+udlrmrspEPBCAAgRCBwcXg7Nmzxdra2p5yPvvss8XRo0eLGzduFKurq6E6RH0/CwHQEz/11FPFrVu3io2NjaiycBAEIACBsREYpRgIJLnSXllZ6ayDnaUYSN63b98ulpaWxhZfygMBCEAgikBWYiACsb29Pa2Y7YDv3LlTLC8v76n0uXPnpmLimyaSg2UE4r4OHjxY7OzslB+H8pVRzKVLl4qtra0o4BwEAQhAYIwERikGvmkiEQJ5aaf73HPPFYcOHZpOJblX/m4eMWsG2vHb9YpQvlKuY8eO7ZvqGmOwKRMEIACBKgKDi0HVArJdL9CO/969e3vqcf78+fL96dOn903RaMeu+cSIgRxz+fLlaccuebhTP3X50swgAAEI5EpgcDGwC8h6Ne/eSaSf+yCfOHFizxSNe4eS7w4i3/qBO/Jwz1WXb5cL3bk2JMoNAQjkTWBUYiAo5c6cU6dO7bmTSMTgzJkz03l8H3LtrHWdwJ3yqRsZyAjjypUr3vxj8kUM8v4RUHoIQGDgjeqko/XdWiqfy0sXcXWaqOqOHR052GkkTRMaGaj4+PJumi8NCgIQgECuBEY3MhCQ2pHb+XuZxpH1BRUIOU6u9mUkIFNFsphsO3T5Tl51YnDgwIE9i9BuEH0i5ObLAnKuTZ9yQwAClsAoxUAKKFM3m5ub085cPnNvLbViocdr5WTq5uTJk8Xx48fL20t900RyS6i9VdWCUWEJ5RszhUWTgwAEIDB2AoOKwdjhxJaPh85iSXEcBCAwVgKIQQeRYTuKDiCSBQQgMCgBxKAj/LLoffHiRTaq64gn2UAAAv0SQAz65c3ZIAABCIySAGIwyrBQKAhAAAL9EkAM+uXN2SAAAQiMkgBiMMqwUCgIQAAC/RJADPrlzdkgAAEIjJIAYjDKsFAoCEAAAv0SQAwSeDd1T5Onlat8nUN56fd1T01LVdxdXGOrFzp/KJ+h04fKx/cQgEA9AcSgpxaSauPp62xdb4WUqqR25innlrRDnz+1/KSHQO4EEIOeIogYBK5KJhsLuj4WPYWG00AAAnJBNtn2ea99GFiiCfg2v7Oeytq52Q32rL+yPZF7ZWzNdGRDPvF4cDvLqpGB7uYqG/3JSzbdk1fII1rPo+WyPg0hL2hb/tCxkn+ofnV+1776uY500UHkQAhAoCSAGCQ0BFcMJCvVVvVC0N1PQyMDm5d0lLrbquSpHWMTMXBFJ+TlrFtza3nrPKSlTE08pt1jQ/VzXedczwkpa5WoJoSTpBBYaAKIQUL4XTGwW2qXSjvptPTqOlYM1GPBDthc1zYtct3IoAsvZy1zE4/pRx55pNY3Wsou3hNV9dP6u2ZDlp/rVZ0QQpJCAAIvEUAMEppCnZWmioGdKlpZWSm9FXwvzUs6wQsXLuyz4GyygFy3GNvEy1muyK9evdrYY1rr5ztXqH6SVqba3NlL8ZXY3d0ty8Jic0KjJSkEKgggBglNIycxaOPlbMUgJr0KX92xiEFCgyMpBGZIADFIgDsLMehqmsiuL7T1ctapmcOHD++7Wq/ymPZd2dtjQ/WLnSbizqOEhktSCHgIIAYJzWIWYiAPpcmVtSyQypSIvNosINvOMsbLWReQfQvgd+/ejfaY9nXmmrcdOdTVz/W79i0gIwYJDZekEEAMum0DTcRAr86lBL67ebu+tdTtLENezrooK7ew6ssu4sak13OGjpX8U28tdesXWqDvNvLkBoH5I8DIYCQx/b33vKcsyet/9EfLv7m9FzH5f7/v+4pve//7eyn///y1Xyte8Wf+zJ7oiQhVLdCPJMwUAwKjJYAYjCA0Oo0ygqJkWQQZaclU2PXr14u1tbUs60ChITA0AcRg6AhMzv+JP/fnioeffloeTCief+IJmUcqHn7mmbJkY39/dnJ1/hOf/GTxHX/xLxY/98//eW/lPTDh9fKHH55GT0YFvuchRhBeigCBLAggBiML04uf+lRZopc99FD5l/f1PEYWPooDgWwJIAbZho6CQwACEOiOAGLQHUtyggAEIJAtAcQg29BRcAhAAALdEUAMumNJThCAAASyJYAYJISu6YZpXdhe6hPKN2/e9Jbc3e0zoXozSVrHYCYnJFMIQCCKAGIQhSn9oNQnZF2/g7Nnz+67p163bRirX1Eqg/QokAMEIFBFADHoqW2kdoQxYiBVaTpa6an65WlSGfRZVs4FgUUjgBgkRHwo20vZ18c3MnDFoMoesspS0nUYk/xktGH9FersKLXD397enlK1Tm/6uXUpC+WXEB6SQgACDQggBg1guYcOZXtZJQa6QZxOE/nsIessJX27k9pzuWl1N1Tr5iaMdLdVd+tsd2QQsrdMCA1JIQCBhgQQg4bA7OFD2V66DmK2THa9wLWH9G1l7U7f2DqpraZc3atQ+BzIJA/ZCmJ5ebnwLWBLPmJYb8UgpiwJoSEpBCDQkABi0BBYnRi42yrbjjU0X97E9rJumqiqfPK5z+RGPreWkvb/dorIbsHtIjtx4kSxvr7utau0x1oGMWVJCA1JIQCBhgQQg4bA5l0M7BX7Y489Nl2bkM77zJkz+7yZlUdV544YJDQwkkKgRwKIQQLsJuY2sSODkC2kPmdQtYBcNzKInZrRkYcY3ei0T1VaPV/oezmOaaKExkZSCMyYAGKQAHgWYhBje9l2mkg7ZHlgbWdnp6y5aylpP7N3/fjSymd6x5KYysQsMK+srEwNaEL2lgmhISkEINCQAGLQEFjbaaIubS9TxEA7dd/tn+5V/uXLl/c92ObeCuoe436vdxpJ3j4GdbeWhkZTCaEjKQQg4BBADEbSJL700Y+W5jZf87a3lSUa8r3eRfQbv/iLxTe/852DlEfDgpXlSBooxZh7AojBCEKM7eX+IGBlOYKGSREWigBiMIJw//ab3lQ8+OM/Xpbk7g/+YHFv8vcN//Sf9v7+E3fvFo9M9jyS18cuXCje8uCD/Zfn7/yd4o9/+tNlGbCyHEHjpAgLQwAxGFmoP/8v/kVZotd893eXfxft/cjCQXEgsDAEEIOFCTUVhQAEIFBNADGgdUAAAhCAQIEY0AggAAEIQAAxoA1AAAIQgMDkzvbJLXxy8wqvFgSaGsnkYHupzxgIjnPnzk2fFm6Bp0zSlFHb85AOAhBII4AYpPGLTp36NG2M01kXtpd219LoynEgBCCQPQHEoKcQ9iEGXVyJIwY9NQhOA4GREUAMEgIyj7aXds8i62BWtZeR63PgTi2500R1exHpsUePHp1GxfWISAgXSSEAgRoCiEFC85g320txI3NHBnU7kQq6Q4cO7XE3czt/1+BH0qgtprtjqm7LoctYKjQ+97SEsJEUAhDwEEAMEprFPNpeWjFQj4Iqq0txOHPFwMWpjNSnwe3Y7fSZa9Op015259OEcJEUAhBgZDCbNjALPwPpLC9M9gVSvwEtecwCclVHLB4J8oqxmrRiELK6lCt8O+0j4qBX/W655b1M//iEZXd3t0znu/OIu5Fm03bJFQL7+gtuLW3fKBZBDOqsLi05Kxx23UAZIQbt2xkpIdAHAaaJEijPQgyGtr30TRM1mbN3vZKbThO5C8aMDBIaKEkh0IAAYtAAVt00TGiKI3RrqTsNJJaTOuWiUzHaUaY4nYWsJn0LyNYmUxio1eXhw4fLqR8rFu6Cs7uAXGe5GWKYECqSQgACAQKIQUITaTIyyMX20vecQZ3Vpd4RpBjddYM2t5bqGocKj4pgSFATQklSCCw8AcRg4ZtAXgCwwcwrXpQ2HwKIwUhi9anv+q6yJA996EPlX97v5SFM5FbX69evF2trayOJGsWAwPwQQAxGEEs8kMNBkFtSscEMc+IICLQlgBi0Jddhut/7+3+/eP0/+Af3RwQnT94fIXz4w7yfELBsOkROVhCAgEMAMaBJQAACEIAAfga0AQhAAAIQwNyGNgABCEAAAhMCTBPRDCAAAQhAADGgDUAAAhCAACODpDbQdN+cFA/kpIKSGAIQgECAANNEPTWR0FYKTYWlp2JzGghAYEEIIAY9BRox6Ak0p4EABFoRQAxaYbufqGsP5MuXLxenTp2alsjdzjnkHyw+Apubm2V62UlUXsvLy3tqaL0GQv7FCWhICgEIZEYAMUgIWNceyNqJixex6//rbg3t8w+Wba+tQ5o79aR5io2kvEL+xQloSAoBCGRGADFICFjXHsgyMrCbsEn+VR23FLvOP/jOnTuFiIp9yWcyUqjLMwEHSSEAgYwJIAYJwWviZ9BmzSDVMlKrJmY4YiqjL+sPsL29XX7s8y9OQENSCEAgMwKIQULAxi4GKgK6TqAjA3ctosq/OAENSSEAgcwIIAYJAetLDNQX2fUidqeJbCevHbxs/awv8QOQdQJXDPR71784AQ1JIQCBzAggBgkB60sMxAYy5F3sLhZrx28FRH0TRAzkFfIvTkBDUghAIDMCiEFCwJqIQVMPZClWqn+wmMHoraaSnywcn5z4JRw/frzY2NgoQv7FoXWOBHQkhQAERkYAMRhZQMZWHDyHxxYRygOB2RBADGbDdS5yxXN4LsJIJSAQRQAxiMK0mAfhObyYcafWi0kAMVjMuFNrCEAAAnsIIAY0CAhAAAIQwNyGNgABCEAAApjb0AYgAAEIQGBCgGkimgEEIAABCAwrBvJQlbvFghsTd5M1/d7d4dOmcx+mku9855G85WW3fdZ87ANXTcpQdazma7eHcOuq5da9hELuZ/r9pUuXCt1wztem225CFzp/6PcTSh/6vi5/faCurh1I+rp4uNtyxMau7jgtTxd5pZQvpl0rX9/vxW2nwnt3d7fY2tqahkX3upIP6tq1JqizfQ21Jfk+pb2MIX1MHYc8ZtCRgdzHLk/E+jpjhSI/qrNnz+7Z2lkDa41a7PGyQ6dvTx73eHcjNxsIVwxiy1BV3lCQ7fbSq6urocPL730/jjb5VJ0s9ccXqkRq/rrlRl1HVBUP6+2gvGNjF3NczDEqVr62lVo++Q34fh/uU+VSTvHBsJ2865Uh5fSJgRx39erV8kKkar8rbQNdPM2e2l5C7TH0/dDnD5Uv9ftBxUAKL41kfX29kP13fK+qH5Wv05PGeeHCBa+4+I7XkYH8cGSrBtsJx4hBVZ6+H3coUL69hEJpFl0MlH/d6LKuU/Z1jDGxi+noY46pEwP9baysrJRbh4SOtW0ltl37Onjbecv/VSR8x2odb926tW/U4LZdxCD0ax7++8HFQK6AZJrDXpm4DbvqB+o2sJByuw1aG7Nc3Ygg2BFKjBik/GDd0FdtLGevuOzUg1pkuldkVSMDYdPUFlPSuFacVjTtNIHWx16NuvEIlb+trSdisLc1xbbr0O/FGiS5vx3bXu/evbvPNc+WyMZV3fiGbo+htqviqz4gvt9b0/bqmk0N3/3vLcHgYhC6uqu7wtJhqghJKB+ptrtFs81bOz51GosVA1uGJldvTcVAyqobzKkI+YbndWLQxBZTRkm6y6l2tu7UhduZ1H0fKn8bW8+YKbFFnSbSC6iqdi3rSK7taV3n5IqB78LKts/QyEDKNWR7DLXdWbTXsXX+bnkGFwMpUN0VSqwYxEyzuHv827zdjixFDKyrmAVet9jpm/9WLupnYOfGq4xq6sTAnj9ki6li4I48lMvp06drbTVt+lD5Y/0afPyEkTvF544sq+LhpotZGHavGO257KgoNS/JN6V8KgZV7TpVDNzfrK4zVK3f+EbxQ7XHRx55JMoStur3ltJexywIoxAD+eFcvHjRu27QtRicOXNmOh3k5m09A1LEIGbe2W0UcqUlL50ftiIpV+a+tZAmawYhwfXZYvo6Wnck5OscVUD0nKHySx7irVB3B0tV+X3cXDGw8dDO0bfg2cU8v567bV6zKJ+vXYuYix926G4+rY8dCfiMk6ouTjR9kyldV0hte3IFsk17tOuTvnPNsr0iBgECbcWgSQOTIlStGejUkDZouWKRdQRdvJvFIqRFIvU4duyY944p+SGEGqdt3HUjg6pbFatsMUNioD+kuvQx5U8RA0nr6xDqOmW9ivVdeccIeUxHH3OMCql7zq7LV9Wu6y4Q3JG2/e24c+W2LVfdxhzzW41pT3ViEJNefwN1x4Z+b6ntdayCMIqRQeiq1fcD7epuIjdvnx9w1Q+7y7uJfB1a19NETW0xfXHRH/Xhw4f3Xc27tpqx5Y8ddre5mq+KnXwuL3vTQEoH7v7AU/Pquny+dl13N5F8d+XKlSkfPfZ973tfOaLwTc35bkmNHRnE2LR21R59nbltu11Na4Zutx2bKAwuBqGF36ofld6NYKdVBK5etcQ+Z+ATGs1Dr3iblCG2E3AbQt2agVz5S772fnAtY5O7ieyxIVtMOacuICtL/cHKlZPvDhI93p0miil/U1tP4ZeygKz1t/PWsbGLOS7mmKqRgXw+i/K57VrOIzFzr+b1gT7b4asYyGjZioRtx3YEoqPtWDHosz36Lj7cthv6vbVpr2Pr/N3yDC4GdUN8/bH4FgDrFmPtVZBWuOoJ5LpRhxWD2DLULRxKWaoWO/u4tdQVjpAtpu/WUssxJn2TW2NDt+rFCp9t5HWdspbfnTqo+tFq7GI6+th20Gf5tLN2H0Zz4yj1r1q/kTvY6n57biepLF3bV99Vfkx7cm91btseQ+dy+542t5ba9trFcxazFpPBxSD00NmsAYwlf98I6cu//dvFy9/0puKBV76yLGZu7+UH/+sf/Whx6G1vm0n5Y0YGY4kv5RieQOjOs1mXcOwWsoOKQcx2FLMO0Fjydzu2P/qt3yqef/zx4mUPPVQ8/MwzxYuf+lRW73978kT3N37rtxb/z5//88W3/7t/13n5RSBjbiceS3wpx7AEhr5wyMFCdlAxGFqph22e+89uN6o7PVm8e813f3fZiX7xV36lePGzny1e89f/evG/Pv3p0b9/z8/9XPHPPvGJ4vjkwbXLk1tGuy7/l65fL97/9rcXm5ub3v13xhZXyjMsAZ0SarthYxelz8FCdlAx6ALyvObxpf/4H4uvmVxVy+vuD/1Q8VWT6aLX/fAP835CwLKZ1/hTLwj0TQAx6Js454MABCAwQgKIwQiDQpEgAAEI9E0AMeibOOeDAAQgMEICiMEIg0KRIAABCPRNADHomzjngwAEIDBCAojByILS1gdZt3yo2q45dnfKoXDE+uPifbw/Qvq0sG8/Iz3a9wRsX97HQ7WptueNbYtt8x9rOsRgRJFp82CMfay/amuD0F7zQyNo+qg+3sf+iLk7cdqjXMbu3jty7Cy8j4duW03P37QtNs1/zMcjBiOKTpsnamPEQKpYtzPs0Aia/gBDmxtKfWax7XjsnkSp22D7Ou7YPKXuIU/vPr2Ph25bTc/ftC02zX/MxyMGI4pO6mZ1dZ2VFQPd8VWe4JWXTiFVbRTnWlLqVaQ13KnbZE6Or8tbNj+Tl7VBrMsPMageGYhohDy9QxcGXXkf24sQMS/Sl92sMfe2OKLuI7koiEEywu4yCImBdPZ1PshVYqDz7Dq3LD9A13/W7fDtlIFvu2p7Ljet1kN/9O737t717tVYXVnEVDxmOq2KhWsDGRpF2Oj2MTLoqny646zr6Z1qd9nU+1i3hta24PPJzrktdvfrHz4nxGD4GExLkOqDXLdtst2S2O0oqqanbCdtrybtlbkKhW/LY6lYnb2iXoHa88SURa848T4u9mwnbcVqLN7HblvTUaK6CM5DWxxRF5JUFMQgCV+3iVN9kGOuXO3QXe0yfS5Tcpy9CrT/l1GDThH5vCOUilyFrq+ve/2NLTkrBjFl0bLJX9fcSPN1WczCW9gX/dgY9FE+6y2gjPv2PvZNSVkPE/f7mPiPrS122wsMlxtiMBz7PWeWH2uqD3JsR9TmB2iv2B977LFCFzTlx3vmzJk99pG2YlU/7lQxkPR4H+9tvG78x+B9PAsxGGNbHEk3klQMxCAJX7eJU32Q24pB7NSM5n/q1KnponPoDqjQ9+60QdOyuPaKVSMD+7n8H+/j3WJra2tfA+7a+zhmmihkx+q2EXk/prZsN3csAAAGYUlEQVTYbS8wXG6IwXDs95051Qe5rRjoj01uSdRO0nfPuX7mW/CzaSU/61Eds8Csc8gxZUlZQJ6Ft7ANZGwMqo6bRfmG9D7WBWS9Y836aMvNAFUm97m0xRF1H8lFQQySEXaXQehuIr0i0qeMXV/W2I6o6tbC0O2hvo5Ka++mdX1y3e/t4q/rj6uCoLecynv7BHWKGEheeB/fj1of3sfuraNuLHNvi939+ofPCTEYPgbTEvjun/+9H/3R8vvXv+c95d8h32v5dn7wB4uDFy8OUh45aYwYjCisC12U0DMNbeHEPGvSNu9FTYcYjCjybid39+/9veIPP/KRsoSvfMc7yr9/8Mu/PNj7n/31Xy+u/eqvFv/XN31Tr+WR21ZfNan/6//hPyzrHrMOMaKwLnRRZiUGdTcPLDTwhMojBgnwZpHUblT3ff/23xYHfuEXZAK+eOGJJ8rTHXj66fJvn+/v/M7vFN8w8TOW128991yx9HVf1+v5i4kYvPCX/lLxdRMh0qmNc+fOVd5WOou4kGc7Al2LgV4wSWnGvvliO2LDpUIMhmPf6Mwv3r1bHv+yBx8s/y7a+0awOBgCEGhMADFojIwEEIAABOaPAGIwfzGlRhCAAAQaE0AMGiMjAQQgAIH5I4AYzF9MqREEIACBxgQQg8bIZptgrLaX9i6OLu7k6eouE2ww97fHRbPBHGvbnG1P0X3uiEH3TFvn2OZhqhinsy5sL+vcsVpXuKOE2GD6QS6KDeaY22ZHTbyXbBCDXjDHnaTNw1QxYiBnT70SH/MPLuZpVGwwbxSrLz0rIu3Bbhueuw3mmNtm3C9/HEchBuOIQ1mKWe5NlGp7afcJsg5mVfsHuT4H7tSSK051+yLpsdY60e50iRhUjwwWwQZzzG1zRN1LsCiIQRBRfweExGAo20vZXdK9+qrbiVSIHTp0aM8Tom7nb9+HbC5150udC3d3voyZXsMG84E9rmg6MsjdBnPsbbO/3iP9TIhBOsPOchiz7aUVg6o5enVqi+lgVAwOHDiwTzjcaQzfnvjymWusjg3mYtpgjr1tdtZBzDgjxGDGgJtkn4vtZcjqUkxT7LSPiINrpKJiIHxk+sfnoby7e9+Axbfe4X7mY2fZ92Ez6Yt17LbifZRvEWwwx9g2m/QBQx6LGAxJ35x77LaX9uorZHVpkdofp1036FoM5JzYYO5tzItig5lD2xxJN1NbDMRgRFEas+2lbyjeZNdIV0CaThPZBWMJmTsyCF2BV30vn8sLG8x8bTDH3jZH1MUgBrkEY8y2l74F5Cqry8OHD5dTP1Ys3EVidwG5zuYwNE2UsoA8C5vJuumpqraIDebtoq0N5pjbZi59T3mBNZmrvZdTgee5rKG7iaTu+iCR/L9P20vfvdx1Vpf6oJvGy103aHNr6ZEjR6bht+lTxEAyxAbzPtZcbTDH3DZz6q8QgxFFy3e//Bcnhi7y+tq3v738y/u9PIRJjBiMKMwLXRQR8acnlqmPT6xT57E95xxcxGBE0XM7Nen4n3/88bKEDz/zTPn3eXE8mwzmeP/MVCDbPLk9orAvTFGkPf+xb/u24v9+1auKd129Op/tefJ7/YbPfjbLmCIGIwub3ahu/ad+qnjD+99fLpZ++nu/t7S/fNPP/ExZ4kV+LzObv/s3/2b5o8MGc2QNuKY4v/W61xXf+LnPFb/wIz9S/Kmf/Mm5a8/yO33jBz5QvPo7vzOfoJiSIgaZhO0LH/5wWdJXnzxZ/l3095mEjWJWEJj39ptj4BGDHKNGmSEAAQh0TAAx6Bgo2UEAAhDIkQBikGPUKDMEIACBjgkgBh0DJTsIQAACORJADHKMGmWGAAQg0DEBxKBjoGQHAQhAIEcCiEGOUaPMEIAABDomgBh0DJTsIAABCORIADHIMWqUGQIQgEDHBBCDjoGSHQQgAIEcCSAGOUaNMkMAAhDomABi0DFQsoMABCCQIwHEIMeoUWYIQAACHRNADDoGSnYQgAAEciSAGOQYNcoMAQhAoGMCiEHHQMkOAhCAQI4EEIMco0aZIQABCHRMADHoGCjZQQACEMiRAGKQY9QoMwQgAIGOCSAGHQMlOwhAAAI5EkAMcowaZYYABCDQMQHEoGOgZAcBCEAgRwKIQY5Ro8wQgAAEOiaAGHQMlOwgAAEI5EgAMcgxapQZAhCAQMcE/n+x7Kr2aC0ZSgAAAABJRU5ErkJggg==;" vertex="1" parent="CkiNoyqXaFTZ2xthF8Od-4">
          <mxGeometry y="120" width="160" as="geometry" />
        </mxCell>
        <mxCell id="CkiNoyqXaFTZ2xthF8Od-5" value="Profesión" style="swimlane;childLayout=stackLayout;horizontal=1;startSize=30;horizontalStack=0;rounded=1;fontSize=14;fontStyle=0;strokeWidth=2;resizeParent=0;resizeLast=1;shadow=0;dashed=0;align=center;" parent="1" vertex="1">
          <mxGeometry x="548" y="362" width="160" height="120" as="geometry" />
        </mxCell>
        <mxCell id="CkiNoyqXaFTZ2xthF8Od-14" value="- &lt;u&gt;codigoProfesion&lt;/u&gt;&lt;br&gt;- nombreProfesion&lt;br&gt;- tipoProfesion" style="text;html=1;align=left;verticalAlign=top;resizable=0;points=[];autosize=1;strokeColor=none;fillColor=none;spacingLeft=4;" parent="CkiNoyqXaFTZ2xthF8Od-5" vertex="1">
          <mxGeometry y="30" width="160" height="90" as="geometry" />
        </mxCell>
        <mxCell id="ojXystufkmVzPJKqhMDF-25" value="" style="edgeStyle=orthogonalEdgeStyle;rounded=0;orthogonalLoop=1;jettySize=auto;html=1;strokeColor=default;" parent="1" source="CkiNoyqXaFTZ2xthF8Od-7" target="ojXystufkmVzPJKqhMDF-24" edge="1">
          <mxGeometry relative="1" as="geometry" />
        </mxCell>
        <mxCell id="CkiNoyqXaFTZ2xthF8Od-7" value="realiza" style="shape=rhombus;perimeter=rhombusPerimeter;whiteSpace=wrap;html=1;align=center;" parent="1" vertex="1">
          <mxGeometry x="568" y="251" width="120" height="60" as="geometry" />
        </mxCell>
        <mxCell id="ojXystufkmVzPJKqhMDF-7" value="" style="endArrow=none;html=1;rounded=0;exitX=0;exitY=0.5;exitDx=0;exitDy=0;entryX=1.006;entryY=0.217;entryDx=0;entryDy=0;entryPerimeter=0;" parent="1" source="CkiNoyqXaFTZ2xthF8Od-7" target="CkiNoyqXaFTZ2xthF8Od-13" edge="1">
          <mxGeometry width="50" height="50" relative="1" as="geometry">
            <mxPoint x="537" y="312" as="sourcePoint" />
            <mxPoint x="537" y="282" as="targetPoint" />
          </mxGeometry>
        </mxCell>
        <mxCell id="ojXystufkmVzPJKqhMDF-11" value="" style="endArrow=none;html=1;rounded=0;exitX=0;exitY=0.5;exitDx=0;exitDy=0;" parent="1" edge="1">
          <mxGeometry width="50" height="50" relative="1" as="geometry">
            <mxPoint x="737.04" y="280.74" as="sourcePoint" />
            <mxPoint x="688" y="281" as="targetPoint" />
          </mxGeometry>
        </mxCell>
        <mxCell id="ojXystufkmVzPJKqhMDF-23" value="" style="endArrow=none;html=1;rounded=0;entryX=0.5;entryY=1;entryDx=0;entryDy=0;exitX=0.5;exitY=0;exitDx=0;exitDy=0;" parent="1" source="CkiNoyqXaFTZ2xthF8Od-5" target="CkiNoyqXaFTZ2xthF8Od-7" edge="1">
          <mxGeometry width="50" height="50" relative="1" as="geometry">
            <mxPoint x="622" y="355" as="sourcePoint" />
            <mxPoint x="636" y="430" as="targetPoint" />
          </mxGeometry>
        </mxCell>
        <mxCell id="ojXystufkmVzPJKqhMDF-24" value="horas" style="ellipse;whiteSpace=wrap;html=1;" parent="1" vertex="1">
          <mxGeometry x="595" y="184" width="66" height="30" as="geometry" />
        </mxCell>
        <mxCell id="ojXystufkmVzPJKqhMDF-32" value="1:N" style="text;html=1;strokeColor=none;fillColor=none;align=center;verticalAlign=middle;whiteSpace=wrap;rounded=0;" parent="1" vertex="1">
          <mxGeometry x="633" y="340" width="27" height="16" as="geometry" />
        </mxCell>
        <mxCell id="ojXystufkmVzPJKqhMDF-33" value="0:N" style="text;html=1;strokeColor=none;fillColor=none;align=center;verticalAlign=middle;whiteSpace=wrap;rounded=0;" parent="1" vertex="1">
          <mxGeometry x="707" y="285" width="27" height="16" as="geometry" />
        </mxCell>
        <mxCell id="d-MlV-hNbE7Le59Y9CJM-1" value="&lt;b&gt;DIAGRAMA EJERCICIO 12&lt;/b&gt;" style="text;html=1;strokeColor=none;fillColor=none;align=center;verticalAlign=middle;whiteSpace=wrap;rounded=0;" parent="1" vertex="1">
          <mxGeometry x="405" y="42" width="170" height="80" as="geometry" />
        </mxCell>
        <mxCell id="ojXystufkmVzPJKqhMDF-35" value="0:N " style="text;html=1;align=center;verticalAlign=middle;resizable=0;points=[];autosize=1;strokeColor=none;fillColor=none;" parent="1" vertex="1">
          <mxGeometry x="512" y="279" width="37" height="26" as="geometry" />
        </mxCell>
        <mxCell id="ojXystufkmVzPJKqhMDF-36" value="1:N " style="text;html=1;align=center;verticalAlign=middle;resizable=0;points=[];autosize=1;strokeColor=none;fillColor=none;" parent="1" vertex="1">
          <mxGeometry x="591" y="335" width="37" height="26" as="geometry" />
        </mxCell>
        <mxCell id="ojXystufkmVzPJKqhMDF-37" value="1:N " style="text;html=1;align=center;verticalAlign=middle;resizable=0;points=[];autosize=1;strokeColor=none;fillColor=none;" parent="1" vertex="1">
          <mxGeometry x="702" y="255" width="37" height="26" as="geometry" />
        </mxCell>
        <mxCell id="ojXystufkmVzPJKqhMDF-38" value="1:N " style="text;html=1;align=center;verticalAlign=middle;resizable=0;points=[];autosize=1;strokeColor=none;fillColor=none;" parent="1" vertex="1">
          <mxGeometry x="512" y="251" width="37" height="26" as="geometry" />
        </mxCell>
        <mxCell id="ojXystufkmVzPJKqhMDF-40" value="" style="endArrow=none;dashed=1;html=1;rounded=0;strokeColor=default;entryX=0.482;entryY=1.01;entryDx=0;entryDy=0;entryPerimeter=0;exitX=0.5;exitY=0;exitDx=0;exitDy=0;shape=link;" parent="1" source="CkiNoyqXaFTZ2xthF8Od-1" target="CkiNoyqXaFTZ2xthF8Od-12" edge="1">
          <mxGeometry width="50" height="50" relative="1" as="geometry">
            <mxPoint x="678" y="386" as="sourcePoint" />
            <mxPoint x="728" y="336" as="targetPoint" />
          </mxGeometry>
        </mxCell>
        <mxCell id="08bx-MpEAxmyKOZHQuwp-2" value="" style="shape=image;verticalLabelPosition=bottom;labelBackgroundColor=default;verticalAlign=top;aspect=fixed;imageAspect=0;image=data:image/png,iVBORw0KGgoAAAANSUhEUgAAAYMAAALtCAYAAADKcgilAAAgAElEQVR4Xu29fYwdyXmf22vJsqOvK62k5cqacfw10d1wM0yCRAgs4xL+g+Tq7iphEJmL0EaMDMcG4ziGycSWETIOoswkFmKRiW35yhG5QHJlGTMxENrYtUUubhLg2rhRwsTmZhhFGIO2Q8ralWRashRbirzhPW9z36N3aqq7qrv6dHed8xyAGJ5zuqqrnrdO/bqquuv3wL3Jq+AFAQhAAAILTeABxGCh40/lIQABCJQEEAMaAgQgAAEIIAa0AQhAAAIQYGRAG4AABCAAAaaJaAMQgAAEIMCaAW0AAhCAAARYQKYNQAACEIDAfQLcTURLgAAEIAABxIA2AAEIQAACjAxoAxCAAAQgMPQ00aOPPlrcvHmzMhCyU8azzz5bHD16tDh37lyxsbGx51j97vLly8Xa2tr0u6eeeqq4devWvuMfeOCBPenZiYPfAAQgAIERrBmIGJw9e3ZPR+4LjHb6165dK44cOTI9RDp3nxCcOnVqn3i4x54/f77Y3NwsEAR+ChCAAAQGniaKFQMJ1JNPPllsb29PO295L6+tra1pHO1Iw44knnvuueLQoUP7On4RCFdgaBQQgAAEFpHAoHcTNREDCY503idOnCiOHTtWyNW/vaqX0cOlS5dKcRChWFlZ2TdN5AbYikFsmkVsJNQZAhCYfwJZiYFOF0lY6q7oYzp2zev27dvF0tLS/EeaGkIAAhCoITC4GFQtILtrAVoHXQSum+sPicGdO3eK5eXlfesNtBQIQAACi0pgcDGIWUDW4EgnL+Ih/2S6yK4X2ADWiYEKQV36RW0M1BsCEFhcAtmIgdwuKusEN27cKKMlC8JVU0VVYqBC4LtNdXGbADWHAAQgkMndRL5pHb011Dfn7xMDvaMIIaDZQwACENhPIIuRgdx1dPDgwX3TQnp3kTtd5IoBawQ0fQhAAAL1BAYXg7onkGVK6OTJk+UagW/BWK/23fl/Vwx0ismHQheqQ4vONCQIQAAC80xgUDGYZ7DUDQIQgEBOBBCDnKJFWSEAAQjMiABiMCOwZAsBCEAgJwKIQU7RoqwQgAAEZkQAMZgRWLKFAAQgkBMBxCCnaFFWCEAAAjMigBjMCCzZQgACEMiJAGKQU7QoKwQgAIEZERhUDOpsL1O3ltanjoVbF1tQ+IxwUre4kAfd1tfX97i3zSjOZAsBCECglsDgYuDbtVSfGE6xpJS9i3Z3dyt3Nu2iXaR05lU+zV2UizwgAAEINCUwSjGQSqRaUvYhBjL6aGuMI/VLHf00DTbHQwACEKgikIUYSMcpUz1iYC8v7UTVF1krV/W57HG0uro69VF2j5f31kXNN7XkilPVua2QHT16dMrdbrdtLTppmhCAAATGQGCUYqDbU+s0kXTEsmvpzs7OlJl0xvLSHUt1akkFwR0ZuMfrfL/1R7BX6m7n7/ol153bdWNzLTalLOLjvLa2NoY2QBkgAAEIFIOLQdWupXa9QDpXa4OpHbk7zWJ3HrVioMe7axByjLxk11Mxy6mbtlExOHDggPdYe263vDpa0BFK6hQY7RYCEIBA1wQGF4MY20u389QrbV/nrovGVgzcKSALUbe/ttM+PktMLYOklemfunP7Onv7mfxfhaHrgJIfBCAAgTYEFkYMzpw5s2eaqQqWFQ57Sypi0KZ5kQYCEMiFQJZi0HaaqMndOyIKVkCaThO5/szuyKDKvzmXhkM5IQCB+SKQpRhICGRaR9YbdFE5ZgHZHq/z+HL1f/jw4XLqx4qFu+DsLiDXnTs0TcQC8nz9iKgNBOaBQLZioIKwvb09jYPtzH3PGbi3g9pFadca0103aHNr6ZEjR6Zls+ndUcc8NCTqAAEI5E1gUDHIG11a6XnoLI0fqSEAgW4JIAbd8ozOje0oolFxIAQg0AMBxKAHyFWnkI36Ll68yEZ1A8aAU0MAAvcJIAa0BAhAAAIQQAxoAxCAAAQgwMiANgABCEAAAkwT0QYgAAEIQIA1A9oABCAAAQiwgEwbgAAEIACB+wS4myihJTTdilqePLZPJdtTh/Ky3+fuHZ2AnKQQgMCMCCAGMwLrZmv9Dtqc0hWDnL2j29SfNBCAwGwJIAaz5TvNvQ8xKId6E6+ElB1R+/CO7gk5p4EABBoQQAwawHIP9W1L7fM9thvkufadmqfbidupINlQ79SpU9NOXr6rMgVyyzRP3tEJoSIpBCAQIIAYJDQRt+OVrNQBzed7vLKyUmxsbHjP6E4DHT9+fHqsiole8VeJwbx7RyeEiqQQgABiMLs24IqB3RJbp2zU3jI0TeSa51hbzTt37hTLy8t7RgaL6B09u0iSMwQgwMggoQ2E3MtcQ5yYkYF4Mly4cGGfRWfMAnLdNJZ8l7t3dEKoSAoBCDAymF0bWAQxGJN39OwiSc4QgAAjg4Q2MAsxOHDgQHHo0KHp2oMUzzdNVLWAbKvjLkrn7h2dECqSQgACjAxm1wZmIQbyUJosEMtdR1tbW2XhYxeQQ9NEmleu3tGziyQ5QwACjAwS2kATMdD5ejmdXRzW03d1a2ndyEC/c72gc/GODi3CJ4SSpBBYeAKIwUiawN0f+ZGyJA/+2I+Vf3m/l4eGSW6frbo9dyShpBgQyJIAYjCCsMmogFc9ARlNyZrH9evXi7W1NXBBAAIdE0AMOgbaJrvn3/GO4qHt7TLpC088Uf498PTTvJ8Q+NSJE8XDv/zLJQsZFZw+fbpYWlpqg5k0EIBADQHEYGTN497nP1+W6IHXvKb8u+jvRxYeigOBuSWAGMxtaKkYBCAAgXgCiEE8K46EAAQgMLcEEIO5DS0VgwAEIBBPADGIZ8WREIAABOaWAGKQGFr7MJlm5TOXqbO8lHSppjSJ1UhOPovy527vqdt/iKcEz0YkNzEymDEBxCAB8FNPPVWazvi2m7bbWS/Ck7OzEoOc7T0l7uvr65W+1wlNj6QQ6JwAYpCAtMpkRkTCbkONGLSDHOvo1ib3Puw9ZYNBnoloEx3SDEEAMUig7m4o58vKZ3kpV9GuHaU1r9GrbJ+Fpp6jzhYzJn3d/kS+9GLSI0//ykhIXicmD4PpRno6zaX2nFpGNfbR75tYcEqaWDHw8ZROuKqO7ufWgGj7pYf/5Px2zyZ3OtCd+nFHRk35pvhWJzRhkkJgSgAxSGgMbgdhOw+brTsykI7D9UJuYqEpnWSdLaZub1FnwSnl085cp7u0/G56tdO0U19u56dpNA9lox2tr87CxZZD59g1DfaeCY2TpBBoSAAxaAjMd7hvodOuI/jEwGeRqVeH0nFWWWjK+UN+BzHpXeGyZXQ7ep9Dmhx/7Nix6T5BvjUDN09bJ+343R1cRXjkJQuudQvINp1b37a+DVVlkVGQMK8Sex35SPzUjyLEt84itYMmSRYQaEwAMWiMrD6BdkT2yt8nBu60QOx22DG2mL6OWT+T0sv0k6/j293dLUcLsWJgbTwljZ0WkvPIiOPq1au1efpo6hRU3TSRTRdTXjnerhPY//vuCNP8tSx22sedIrNi0IavTS9+FrwgMAQBxGAG1N0rU8TALzAhS80+xSBUFm0mVjjsukGK2CIGM/gRkmVjAohBY2T3E1RNRch3alOpUwVdikGMLWbdyCB2GsOOXKqmidyRgTvaqZt6quOnIWkrBm2nieqmgdxmIkysgCjzNnwRg5Y/QpJ1SgAxSMCpUwfulIvb+XcpBmqLGVpArpuGkvLUWV/GTLv46iQoqxatq9YUbDm0U9Qr7rZiIPmE6ujeWuoeb8ty+PDhcmrNioW7+G3rFzp3nVgzTZTwgyRpEgHEIAnf/Xlxvd1Ss3IXB13Ly1BnEPpezuO7tdTeuVMnBtpZVt1G2VYM3FtLbefpq5OvHJZdihiE6uh7zsC9HdSWxY2z79Zayzzm1lLb8btiYkddiU2U5BCIIoAYRGHyH/SH/+bflIutX/vt314eMNT7z6ysFPKcwkc/+MFi9Zu/efDyDM0j1/PbVoa9Z8IPk6StCCAGrbDd7/iff8mV7M3PPFNOj/Tx/r9NzvN/fvGLZcf/ph/4gbL0P/NX/krxi7/yK8UzL7xQvu+zPJyvG94qYMITe8+WP0qSJRFADFri+81XvrJ46F/+yzL1p77zO2WnueKhD32ol/fv/6t/tXj3H/3RtOR/YnLuj7ziFb2dv+/6zvv5Pv3X/lrxDX/wB9N4Yu/Z8kdJsiQCiEESvvuJ/8fP/3z591Xvehfv4dG4PXTQBMkCAskEEINkhGQAAQhAIH8CiEH+MaQGEIAABJIJIAbJCMkAAhCAQP4EEIP8Y0gNIAABCCQTQAwSEYbsLJtkH8rLfl/1EFeT8+mx2Eu2oUYaCMwXAcQgIZ5dOpiF8gp9n1CNShMZn61n0/P04SiGvWTTqHA8BPYTQAwSWkWXHXQor9D3CdWIdhRrc44+xAB7yTaRIQ0E9hJADFq2CLv3jOtd4NvzR93C7J7/moeklw3b5OU6oMlnvnP5/A+sTabrLVC3Vw72ki0bAckgMEcEEIOEYPp2J5Xs1E7StXFUQZCtK3Tzuqptrt1i1e18qpaTKgCu5aS7w6Zrc4m9ZEIjICkE5oQAYpAQSNtBx9g4yqmk45YdL2X0YHfFDE0DhcTA3SlVj6+ybLT5YS+Z0AhICoE5IYAYJATSdqgx1olyKhUNdwvkVDFwt6xWy8n19fWgzWXbraJ9pjdSR+wlExoVSSEwEAHEIAG8KwYx1ol2X3xrirMoYhDDSEKCvWRCwyQpBFoQQAxaQNMkvmmiOutEtcOUq3jpFF23sjpDk1lPE509e7ZYW1urpeE+24C9ZELjISkERkYAMUgIiG8BOWTjKHcLyQKzdqQ6vZM6MpBqqBD5FqfrbC7bThPJOUMWj9hLJjQwkkKgRwKIQQJs185SO0d7a6ku7OqtnXZqSKeM5C6gFybGNHprqOup7E6byPfuraXiG7y5uTmtjTtCaXtrqcUTa11pzz1me8mE0JMUAnNHADGYg5B2uTXFHOCgChCAQAsCiEELaEMkef4v/+XytA//639d/rXvRQy2vvVbi//joYe837vH836ICHJOCIybAGIw7viUpXthIgRf9YY3lNaaL37mM+VnL3/jG4t7k7/y/s1XrhT/6h3vKA6/5S3e793jF/W91Ft4HXhJUDMIPUWEQG8EEIPeULc/0e//1E8Vr/3+7y8z+PT3fE/xwOTvGz/4Qd634GFZto8IKSEwfwQQg/mLKTWCAAQg0JgAYtAYGQkgAAEIzB8BxGD+YkqNIAABCDQmgBg0RkYCCEAAAvNHADGYv5hSIwhAAAKNCQwqBnJ/fN1ePo1rQwIIQAACEGhFYFAxkP15Tp48Wezs7LQqPIkgAAEIQKAbAoOKgVQBM/NuAkkuEIAABFIIDC4GstnbpUuXplaRKZUhLQQgAAEItCMwuBjoHv+sHbQLIKkgAAEIdEFgcDGQSrDrZhehJA8IQAAC7QmMQgzEXOXixYvFkSNH2teElBCAAAQg0JoAYtAaHQkhAAEIzA+BUYgB00Tz06CoCQQgkCeBwcWABeQ8Gw6lhgAE5ovA4GIgPsBXr17l1tL5alfUBgIQyIzA4GLAQ2eZtRiKCwEIzCWBQcWA7Sjmsk1RKQhAIEMCg4qBLBzfuHGjWF1dzRAdRYYABCAwPwQGFYP5wUhNIAABCORNADHIO36UHgIQgEAnBBCDTjCSCQQgAIG8CSAGeceP0kMAAhDohABi0AlGMoEABCCQNwHEIO/4UXoIQAACnRBADDrBSCYQgAAE8iaAGOQdP0oPAQhAoBMCiEEnGMkEAhCAQN4EEIO840fpIQABCHRCADHoBCOZQAACEMibAGKQd/woPQQgAIFOCCAGnWAkEwhAAAJ5E0AM8o4fpYcABCDQCQHEoBOMZAIBCEAgbwKIQd7xo/QQgAAEOiGAGHSCkUwgAAEI5E0AMcg7fpQeAhCAQCcEEINOMJIJBCAAgbwJIAZ5x4/SQwACEOiEAGLQCUYygQAEIJA3AcQg7/hReghAAAKdEEAMOsFIJhCAAATyJoAY5B0/Sg8BCECgEwKIQScYyQQCEIBA3gQGFYNHH320uHnzppfg7du3i6WlpdHSffbZZ4sjR440Kt+TTz5ZrK+vN07X6CQcDAEIQKAFgcHF4OzZs8Xa2tqeoj/11FPFqVOninv37rWo0uyTSKe+srJSbGxsRJ9M6nTr1q1GaaIz50AIQAACiQRGKQZSpwceeKC4du3aKK+i24iB1Gfso53EtkRyCEAgYwJZiIF0pOfOnSs2NzdL1NqpSqe8vb09xW8/lw+3tram38mV+YULF4qdnZ3ys6q0mqAubz3nwYMHo/KTKaVLly7tKU/GbYaiQwACc0hglGJw/vz5suPXaSIRA9vxamduO3ydWhJBuHv3bnHo0KE9V+KyPqFTUtLR27TPPfdcefyNGzeK1dXVUijs99KZHz16dFoed2TgHm/LIuse8v2xY8f2TYfNYXuiShCAQKYEBheDqgVku14gYnD58uVpZ6qdtzvtYjtpO810586dYnl5uRQHFQp3PUIESF6nT5+eHusuYEs+2rnrmkHTsmTaTig2BCAw5wQGFwPfArLL3F0/cK/U9Xjp0Hd3d8vpGPt/O0WkaX1xPXHiRHm3jx0F+I6zohNTFim/jjrmvD1RPQhAIFMCcysG9or9sccem04RSed95syZ6Vy/G7eqzt0ehxhk2topNgQgUEkgSzGImZqRGus6gdymqlNKVWmVUOh7Oc6KQUxZxnxnFL8NCEAAAkIgSzHQDlnWG/TuIHfRVo7Rz3yLzzZtCeKlO5bk2YGYBWb7nIEcX1cWFpD5sUEAAmMnkK0YqCD4bi11r/Lt4rN+59466h7jfm/n/O26gy5E192qGpqaGnsjoXwQgMD8ExhUDGaN195FNPTWFjx0Nutokz8EIJBCYK7FQKaJrl69OoqHvdiOIqWZkhYCEJg1gbkUAx0RCLwxbQEhC9oXL14c5RYbs25o5A8BCIybwFyKwbiRUzoIQAAC4yOAGIwvJpQIAhCAQO8EEIPekXNCCEAAAuMjgBiMLyaUCAIQgEDvBBCD3pFzQghAAALjI4AYJMSk6TYTdVaZobzs94tmF5oQIpJCAAKRBBCDSFCph7VxR7PndMVgUexCU7mTHgIQiCOAGMRxSj6qDzGQQoZGGMkVScgglUHCqUkKAQgECCAGCU3Edrz6f/FC0Jd6ONt9i9xN8/RYtxO3U0Gyb5LsvKr5Wdc2t/humXK2C00IDUkhAIGGBBCDhsCqpm6kE5aXblynm9lZX2a702ldJy6d/fHjxwvZQVVeKiYhMZg3u9CE0JAUAhBoSAAxaAisTgzcnU+tw1loikSv6A8cOFD6MVtbTt1ew4rBItiFJoSGpBCAQEMCiEFDYHVioJ21b+onVgxkJHHhwoV9TmwxC8h1ow35Lsaic0x2oQmhISkEINCQAGLQENi8i8GY7EITQkNSCECgIQHEoCGwWYtB7DSR79bS0MggxqJT8hiLXWhCaEgKAQg0JIAYNAQ2azE4cuRI2RnLXUdbW1vl6WIXkENioHnlYheaEBqSQgACDQkgBg2BtRUDn1VmVV56da6LxE1uLa3LU7+rs+iUY3QEMbRdaEJoSAoBCDQkgBg0BDarw//w2rUy6z/20nMKQ77Xu5d2f/Zni285ebIsV9/lmRVn8oUABPwEEIMRtAx9RmEERRlNEeyttaMpFAWBwBwTQAxGENzffMUrioe2t8uSvPCud5V/D/z8z/f+/hO/+7vFW9fXy/N+/NKl4i1veEPv5fnUd3xH8Y1f/vIIokIRILBYBBCDkcX7f1y5UpboVZMnkOW1aO9HFg6KA4GFIYAYLEyoqSgEIACBagKIAa0DAhCAAAQKxIBGAAEIQAACiAFtAAIQgAAEJl4ok1v47gGiOwJNzWXqrDBDpdLnAeQ48S3QLa9D6aq+b1p2N5+h7DibljuFeVu2pIPA2AkgBh1HqEnHFNrJNFQ0u8No6NiY75uU3ZdflenOU089VZrzjOG6I5V5DEeOgUCOBBCDjqPWpENN7ZhyEQNB3IRLxyHZk10q81mWjbwhMCQBxCCRfp09pZ3G0dPodE6VFWZo3yDNxz3uxo0bxerq6nRTOz1Ondaq0tnvpcPWfZD0eOvRUFcfOb5PO04ti9RbzIC0nHYPKCmTnT7zMQ/VKbF5kBwC2RBADBJCFbKndK+GtaOyHbe1wpTOSl66W6luGKfHu0V1Rwah9O73rtmNbouhAuFad4bqUyUGbew4bd2l3tLhW+GSqSc1AXJd4lyBs4LmjgxCdUpoHiSFQFYEEIOW4dLOqsqe8pFHHimWlpb25G6vZvUqXsXAl58klo5UXr7FYSsGofSnT58ulpeX93SoWjgpl5RVRwZra2vTcqt154MPPhisT90CsuXknidUdqm7KzT2fZ0YuOG1YqD1tse4MWrZPEgGgewIIAYtQ2avTG0Wvrlxt5PUK1XbMbnTGzbPEydOTEcL9nMrBqH065M9h45OdkStW8T1lb1JfeqmieoYhcouIyXL2zXpsWW0U0E+blVrBlUxatk8SAaB7AggBi1DFiMG2sHovLVrbO+KwZkzZ/Z5H9cVzxWDuvRV/schIXO9l8Vjoao+KWIQqruykymgD3zgA8Xu7u5UIH2CZQXGXTewU3OhGLVsHiSDQHYEEIOWIQtNE0m27pW4pvGNDKosKWPFIJQ+9L2cp25kEFOftmIQUzY5v4jnsWPHyttU7TpA3Z1KIgpWaHyjMTtacmPUsnmQDALZEUAMEkJWZ0+pXsbuYqaczicG2tlZS0rtoKseKPMtINelDy0w14lBTH3aikFs3avc4rTcKliWuVtnKwY+EdJFdCs2CU2EpBDIhgBikBiqultL9S4aPYXcFXRy4hx2fLI9tSyK+jo395ZRn/Wk5ud7ziCUvuqW1NDIQLyZQ/VJEQMVhO2XfB3kva/u0lm74mhFTB9wU0buuoHLPFSnxOZBcghkQwAxyCZUFBQCEIDA7AggBrNjO/Ocn3/iifIcDz/9dPmX993ymHkAOQEERkQAMRhRMJoURTr+l3/91xeTe0WLP5rcYSMv3nfHQwW2SUw4FgI5E0AMMo3e5ydP4L7mpYfDPvM3/obcClS88ad/uqwN79N4/P7ly8VrJ3cs8YLAIhFADBYp2tQVAhCAQAUBxICmAQEIQAACmNvQBiAAAQhAAKcz2gAEIAABCEwIME1EM4AABCAAAcSg6zbQ1NErxY93bB7ITZzXmnBqcmzX8SQ/CCwKAUYGHUe6SceVasHYpPONqWaTsvvy67o8MWXmGAhAoBsCiEE3HKe5NOlQEYOO4ZMdBCDQmgBi0Brd/YR4IJ+burDZkYGKomzjra+6bafrvJ9dgY31iU4MLckhsFAEEIOEcOOB/Gzp2aAeza4YCFr1CqjzU47xZrbbfku+6hOtu5TabasTQkpSCCwsAcSgZehD5jaL6IHsioG7BbX6KYv/s17tC6cYb2YRA5+ngoQvdbqtZRMgGQTmigBi0DKcMbaXmvWieCD7ponEB0FfdrrHNaSJ8WaWfHw+zixct2zEJIOAIYAYtGwOMWIQ8tedNw9kxKBlYyIZBEZAADFoGYTQNJHvKnbePZDbiEHV1I8Ni44imCZq2VhJBoEIAohBBKSqQ/BAfqBEo4u7bcRAppGaeDPLsdbnmQXkhAZMUggwTdRdG8AD+Suezm3FQKLRxJuZW0u7a7/kBAElwMgg47bw++9/f+l09trv//6yFov+PuNQUnQIDE4AMRg8BO0K8Lmf/Mnic+99b+lw9rp3v7v8+9l//I8X9r0KYjuapIIABBCDTNvAf/+mbyrUp/eFd76zHCEcePrpsjaL9l78oL/+1q1MI0mxITAOAojBOOKQVIr/+V//a5n+FX/yT5Z/F+19EjwSQwACJQHEgIYAAQhAAAKIAW0AAhCAAAQYGdAGIAABCECAaSLaAAQgAAEIsGYwgzbQxNxGTj9PtpfuhnwWr+5g2pTPDEJElhCAgIcAC8gdN4smnV3q1std79bZpOw+bCIGZ8+eLdbW1jqmSnYQgMCsCSAGHRNu0qEiBh3DJzsIQKA1AcSgNbr7CbG9/IrtZczIwOdpUGWNmRgakkMAAg0IIAYNYLmHYnu51/ayjRgI0yprzITQkBQCEGhIADFoCEwPD/kZLKLtZdUC8rlzXxk9uCODOmvMlqEhGQQg0IIAYtACmiSJcTrTrBfF9rLNyEC9EJRVkzWXlqEjGQQg4CGAGLRsFjFisGi2l4hBy8ZEMgiMgABi0DIIoWkiydY1b59320vEoGVjIhkERkAAMUgIAraXe20vEYOExkRSCAxMADFIDAC2l1+xvUQMEhsTySEwIAHEYED4qaf+8m/8RpnFV3/Lt5R/c3+fyoP0EIBAewKIQXt2g6b88u5uIQ5f8nr4mWfKv88//ni27ycNsfjkpD7LH//4oFw5OQQWlQBikGnkb7/1rcVrT58uS//7Ez9keb32b/2t7N//b2fOZBoRig2BvAkgBpnG78Xnny9e9vDDZek/d/Fi+Vc70tzfZxoSig2BrAkgBlmHj8JDAAIQ6IYAYtANR3KBAAQgkDUBxCDr8FF4CEAAAt0QQAy64UguEIAABLImMKgYyKZkt2/fLpaWlrKGSOEhAAEI5E5gUDGQvXpOnjxZ7Ozs5M6R8kMAAhDImsCgYiDkxPpxfX29OHLkSNYgKTwEIACBnAkMLgbPPvtscenSpWJraytnjpQdAhCAQNYEBheDO3fuFMvLy6wdZN2MKDwEIJA7gcHFQADibpV7M6L8EIBA7gRGIQay9fHFyZYKrBvk3pwoPwQgkCsBxCDXyFFuCEAAAh0SGIUYME3UYUTJCgIQgEALAoOLAQvILaJGEghAAAIdExhcDJ566qni6tWr3FracWDJDgIQgEATAoOLAQ+dNQkXx0IAAhCYDYFBxYDtKGYTVHKFAAQg0JTAoGgrGCIAACAASURBVGIgC8c3btwoVldXm5ab4yEAAQhAoEMCg4pBh/UgKwhAAAIQSCCAGCTAIykEIACBeSGAGMxLJKkHBCAAgQQCiEECPJJCAAIQmBcCiMG8RJJ6QAACEEgggBgkwCMpBCAAgXkhMJgYyMNm29vblRxPnDjR6qnk1H2Ohk6vQHgYb15+YtQDAnkQGEwMLB7dn6iLZw5SO/PUsHVxftmi49atW8XGxkZqcUgPAQhAIIoAYhCFKf6gLsRA8rh9+3axtLQUf2KOhAAEIJBAYNRiIJ3iuXPnis3NzbKK0kHKS2wy7UuO0atoSXP58uXi1KlT00PsiENHIXXpr127VhrthI6VPMSY5+bNm2V2el5NL5+502G2k/fV72Mf+xie0AkNmqQQgEA7AqMXg4MHDxY7OzvT2rlX3s8++2xx9OjR6bYW8r0Kh1xZ+763nXXd96FziRAcP358KkTa8Wv+8l5eW1tb5V+Z/hGRUkGQ/N36SZpjx44Va2tr7SJKKghAAAItCIxeDORqWztGuVJ3p07c9QbfNI10sCsrK8Xp06ej0z/yyCO1xwrrQ4cOFffu3Zti17KIGBw4cKD83p3u0bLISEZHMbbj72KaqUU7IAkEILDgBEYvBvYq3sbKTs/I53qcb/M7n2dCXXr3nL5jpZO/cOHCnlGLlEM7c/m/jFisWMhn58+fL3Z3d8vRgq/jZ/O+Bf9FUn0IDEQgOzHQjlnXCezVuMzzh8QgJr2KQd2xiMFALZbTQgACMyGQlRjo/L692hZPBJmOsSMD98pep2YOHz6872q9Kr3vyt4eq9NAqdNEblmZJppJOydTCEAgQCArMdDO2L0jx50mkvfaSauASJq7d+/um8fXBWdXTHxz/u6xMnKQBWBdIPYtIMudRroA7ltA9gkXC8j8biEAgb4JZCUGOueut5rKe7lt9OTJk9O7eny3llrxkDn7UHrtoEPHyvlTby11xUDE68yZM/vWIvpuGJwPAhBYLAKjEIMxIR/DAi4PnY2pRVAWCCwGAcTAxLnLbTFSmg/bUaTQIy0EINCGAGLwEjWdEmq7QV4b+HVpZPrp4sWL5ZPQvCAAAQjMmgBiMGvC5A8BCEAgAwKIQQZBoogQgAAEZk0AMZg1YfKHAAQgkAEBxCCDIFFECEAAArMmgBjMmjD5QwACEMiAAGKQEKSmW0fIA2VVdweF8tLvL126hF1oQsxICgEI+AkgBj21DLt1dZtT+sSiy+ciQmLUpsxN0gx9/iZl5VgIzCMBxKCnqCIG9aARg54aIqeBQAUBxCChadgOTP8vHgb6so5n29vb5ceus5ke63aGoT2PJF3VyGAR7ULxi05oyCSFwIQAYpDQDFwxkKx8u6VKRxUaGdi8QnaaWuQ6MVg0u9CEMJIUAhBADNLagCsG1qJTcrab3sWKQcgnwS5A14nBotmFpkWS1BCAACODhDbgmyaynbX9PlYMQg5qsWKwaHahCWEkKQQgwMggrQ3kJAYxdp/iDbG6ujqFYr2jY9IPaReaFklSQwACjAwS2sAsxKCraSI7MlgEu9CEMJIUAhBgZJDWBmYhBjINFLLTjFlAtmKwCHahaZEkNQQgwMggoQ00EQO9OpfT6R1H9tRd31rqrhmELDxztwtNCCNJIQABRgYjagMvvni/MC972f2/mb0v75z6tV8rVv/0n+6n/CMKHUWBwDwQYGQwgihKR8qrPQHfSKt9bqSEwGISQAxGEPfn3/GO4qtXVop7k7J8+eMfL0QaXv7Wt5YlG/v7jWeeKf7ZrVvF8Un5P/jYY72V96snfN7wEz8xguhRBAjMBwHEYARx/MKHP1y8+uTJsiSf+YEfKP++8aWOjvf1PEYQPooAgbkggBjMRRipBAQgAIE0AohBGj9SQwACEJgLAojBXISRSkAAAhBII4AYpPEjNQQgAIG5IIAYzEUYqQQEIACBNAKIQRq/wj5ZrFn5dgyt8z+WdLN0+rJGOba67pbb8p0cK6+dnZ19ZOzOq/JE8+7ubrG1tZVIkOQQgMAYCCAGCVGQXT1PnTq1Z3sJ9RiwHW1o++qEIkQllQ7+7Nmzxdra2p7j1RFtY2Nj+rm7O6lNgBhE4eYgCGRJADFICFtVJysiceHChenV9VjFwGeOoyODmzdvFu6W1ohBQmMhKQRGTgAxSAiQu7uoLyvpQF3/Y59H8fLycqHTS3V+ynqOGI9ke6xvZCDfu0KlAnf16tVCBMFOFyEGCY2FpBAYOQHEICFA7nqBuJT5jNndDlc6+zqPYt2rqMpPOdYjOUYMrIGNHG9HO7qTqU4vIQYJjYWkEBg5AcSggwD5Fmjt5mk+MfD5JduRQZWfshT30KFD3nWKOqvLqpFBnRio2Ol0EWLQQWMhCwiMlABi0HFg1EjGXvn7xMDtuGO9EZp4JKeODHQaSaeLEIOOGwvZQWBEBBCDGQTDdRYbsxhUrRno1JC9O0rWEVYmu5PK3UfcWjqDhkOWEBiQAGLQEr7PSlKz0g5U1xC6FIMmHsmhkUHV3UTulJJdGzl37hxi0LLNkAwCYyaAGCRER+8Ucs1V3M6/SzFQj+Tjx4+XnbJO5cgdS03XDKqeM/CtL2hdEYOEBkNSCIyYAGKQGBx98Mxm4y7+uv7HvqeNY9cMRAzk5bu11H0uwI4MZN7ffVU9gewTAx1FIAaJDYbkEBgpAcRgpIFpUizfdE+T9BwLAQhAADHIrA3oWoUdBchi7pUrV7z7CWVWPYoLAQgMRAAxGAh8ymndqSn3AbaUvEkLAQgsJgHEYDHjTq0hAAEI7CGAGNAgIAABCECgQAxoBBCAAAQggBjQBiAAAQhAYGKwNXlg6h4gIAABCEBgsQkgBonxz8H2MrGKrZLP0sazVYFIBAEI1BJADBIaSC62lwlVbJ0UMWiNjoQQGIQAYpCAPRfby4Qqtk6KGLRGR0IIDEIAMUjAnovtZYyNprXnFCTWtc2XXp6Avn79enHq1KmS4IkTJ4qtra0pTXVJ0+/lC/vUtM/6U1zi6sqRECqSQgACAQKIQUITycX2MmSjKR2wvLQz1+kvFQQ3vWx/sbm5WdiN7tyRgKbRPFzXNJ/1p1sO39YbCeEiKQQgUEMAMeigeYzd9tL1MpYqy2dypS4vsdF0/ZvttttuR68du2vteezYsUJNcXzTRG6eVky043dvbhPhkZdu191BuMgCAhDwEEAMOm4WY7S9rNsyW6p/9OjRPZ7K8pl1MosVA3VBs2Kzuro6JWz9lqvy9IXDnYLqOGRkBwEIyAUizxl03w7GZnuZixicOXOGnVe7b47kCIEoAohBFKb9B+Vke1knBmqj2cU0kTsycJ3X6qae6ni2DBHJIACBBgQQgwaw3ENzsb0MOatJPcQJbWdnp6yibwHZduxVawauGEheugagaeyitE8sbDl0uknd1RJCRVIIQCBAADFIbCI52F6GxEAQxNxaqpabsWIgC8T21lLf7aqap4bBLYfPmjMxZCSHAAQ8BBCDOWgW2F7OQRCpAgQGJoAYDByApqfH9rIpMY6HAARiCCAGMZRGdgy2lyMLCMWBwBwQQAzmIIhUAQIQgEAqAcQglSDpIQABCMwBAcRgDoJIFSAAAQikEkAMUgmSHgIQgMAcEEAM5iCIVAECEIBAKgHEIJEgtpf3d0DVp4mr/u/DjAFOYuMjOQQ6JIAYJMDE9vI+vCYCYHEjBgmNj6QQ6JgAYpAAFNtLxCCh+ZAUAqMigBgkhCMX20vdrsJW1W7+VmVrab0IYvcuqhslWBMg3bfIblZXdw53Oo7N6xIaLkkh4CGAGCQ0i5xsL327jqonsVpU6nvXojJkRxmzZiBCcPz48aljmXb8Wq466827d+/uc2Njiimh4ZIUAojBbNrAmG0vZVQgRvP25W5s57PFVO8BcRkTW8w6O8qQGKhngs1DyyBiEPJU0DK4nguziSa5QmAxCTAy6DjuY7S91Cq6ouW7A0iPVYvK9fX10hbT91I7ypAYSCd+4cKFfS5mmk7yDllv2ikkbDA7brRkB4EJAcRgBs1gbLaXKgI6z26vysVPwDflYsUgZEfZhxhomOzUHOsGM2i8ZLmwBBCDlqHPxfbSZ0SjZbcjA9dExp0mqpuiCYlB6jTRxsbGvihJvUIi1TK0JIPAQhJADBLCnoPtpU+0dMHYioFg0A7ftah0bTHlWMlDr8xDYiCjD/fOK98CcpX15sc+9rFyGskKkrvgnBBGkkIAAkwTpbeBHGwvz58/X2xubk4rK3cNnTx5cnp3j3bs9hh3JFBnRxkjBnLylFtLXc6sG6S3XXKAgCXAyGAO2kOq7SW3ac5BI6AKEEgkgBgkAuw7+SxsLxGDvqPI+SAwPgKIwfhiEixR17aXiEEQOQdAYO4JIAZzH2IqCAEIQCBMADEIM+IICEAAAnNPADGY+xBTQQhAAAJhAohBmBFHQAACEJh7AojB3IeYCkIAAhAIE0AMwow4AgIQgMDcExhUDOSWRrYlnvs2RgUhAIEMCAwqBvIAlWyLsLOzkwEqiggBCEBgfgkMKgaCVfa8kT3zZTMzXhCAAAQgMAyBwcVAdsi8dOlSsbW1NQwBzgoBCEAAAsOb2+gma6wd0BohAAEIDEdg8JGBVJ29cYZrAJwZAhCAQNkPT0zK7w2NQva5v3jxIusGQweC80MAAgtLADFY2NBTcQhAAAJfITAKMWCaiCYJAQhAYFgCg4sBC8jDNgDODgEIQGAUawZi1HL16lVuLaU9QgACEBiQwOAjAx46GzD6nBoCEIDASwQGFQO2o6AdQgACEBgHgUHFQBaOb9y4Uayuro6DBqWAAAQgsKAEBhWDBWVOtSEAAQiMjgBiMLqQUCAIQAAC/RNADPpnzhkhAAEIjI4AYjC6kFAgCEAAAv0TQAz6Z84ZIQABCIyOwKBiIBvU3bx5sxLKCPbQm0nAeLZiJljJFAIQSCAwuBicPXu2WFtbS6hCXknlietbt24VGxsbeRWc0kIAAnNNADHoObzybAVGPj1D53QQgECQQBZioLuaHj16dFoheVjt+vXrxalTp8rPTpw4sWd/o6o0+oCbfH/u3Llic3OzTK8dtEzhbG9vT89jO26x6LRlkPT2Cl833bPU7TFYfAbbIwdAAAIDEchGDISPriGcP3++7MQvX748nWJyt8GW9/LSJ5y1I9f38v3BgweLnZ2dKXoRAnmpH7Nsl3Ho0KEyD3nJ/604+M557dq1qUmPe07J/9ixYws1LTZQu+a0EIBAQwKDi0HVAnJdR6+drF1gdjta6ahtHsJFjllZWSmv5t3vteN3F61FeHTk4YqBZS2jgqWlpT34daRgBciKRcNYcTgEIACBmREYXAxiFpDdK/AqMdCOXmj5DHPsdtlVefpI6xSUnUJyp6VsOvcuKRUA9mKaWTsmYwhAIJEAYnDkSIlQBObMmTN7po2q2Nq1A7smoCKgn+nIADFIbKUkhwAEZk5grsUgNE1kp2x0mqjJnT5WQHyjFc3TigHTRDNv05wAAhBoQWCuxUB4aOeunbW+900jyTSQrGHYRWW96+jw4cPlnURWLOyCs09MdBFbBYAF5BYtlCQQgEAvBAYXg7onkKsWXmPXDOyto1YYqtYU5HP31lI7upA1B72VVY511w30LieNnJT/5MmTxfHjx8tF6yZTUb1En5NAAAIQeInAoGIwyyj4rvxneb7YvHnoLJYUx0EAAn0SQAz6pD05F9tR9Ayc00EAAlEEEIMoTN0eJHcdXbx4cfpwWre5kxsEIACB5gTmVgyaoyAFBCAAgcUlgBgsbuypOQQgAIEpAcSAxgABCEAAAgViQCOAAAQgAAHEgDYAAQhAAAKT/dwmu3TeAwQEIAABCCw2AcQgMf6u4Y1k59t/SI478tKmeL5T9vGQnPsEtZTDvRaw5bBmPa6RTyI2kkMAAiMjgBgkBEQ7V9uhagdqt7GwPgoJp0tKKs82iJmPGvdIZlr+qs35ZHuN3d3dPWmSCkFiCEBgtAQQg4TQSAfr82OQTvbChQvTDe+GFoO6Tt11d7M4EIOExkFSCGRGADFICJjvatvNzm58pzabPv/l5eXl6fSSz7/ZnXqyBjoyCpEN9Kq2xw5NQVmXNj320qVLe7ygddPABFwkhQAERkwAMUgIjrteUDXd4o4MfP7LtsPWra91+sndfluEQHdCleKr4PjEoKlPgy0HI4OExkFSCGRGADHoIGCuzaVk6fozu5acrvGOKwa+7+XqXF7ixexbp0AMOggmWUBgQQkgBh0HXq/EdUpIr9xD/syuGLgdu34vow+7HqHFr5oK0gXtWAc3RgYdNwiyg0AmBBCDGQTKnZrxTRNVdfZy+6mvY28rBlK9ujUDt6yIwQwaBFlCIAMCiEHLINXNxbtX412KwYEDBxpNE0n16ub+5bsrV65M73xCDFo2CJJBIHMCiEFCAHXh1n1wy+38uxQDGTk0WUC200hVNp32TiHEIKFBkBQCGRNADBKD53uq1138tXcdiXDUTQOFpon0KWbfraWh2z9dj2apet0TyNxNlNg4SA6BjAggBhkFq6qoOi0VEoM5qCpVgAAEZkQAMWgJVp8FaJk8u2TsZ5hdyCgwBBoRQAwa4RrHwe7UlL2NdRwlpBQQgEBuBBCD3CJGeSEAAQjMgABiMAOoZAkBCEAgNwKIQW4Ro7wQgAAEZkAAMZgBVLKEAAQgkBsBxCC3iFFeCEAAAjMggBgkQs3J9jKxqo2ShzwUGmXGwRCAwMwJIAYJiHOyvUyoZqukiEErbCSCwGAEEIME9LnYXiZUsXVSxKA1OhJCYBACiEEC9txsL48ePTqtrbuFtrXnlIOs/4HPhlO2vrh+/XpptykvdxM8SaN2nHpSd0O8c+fOFZubm+XXer66ciSEiqQQgECAAGKQ0ERysL2U6oVsNKUDltfW1lb5V6e/tIN20+uGd3ZDPnckoGk0D2WlguCz/nTLoduEs+dSQiMlKQQiCSAGkaDqDhuz7aWKQchG03VCs9tuux29duyuteexY8eKtbW1EpVvmsjN05ZJO353DyQRHnltbGx0ECmygAAEqgggBh23jbHZXlZ1zNpZy/cyfeTrhHd3d8vRQqwYuNae7hW9jDiuXr1am6cvHO4UVMchIzsIQEAu4CadwD1IdEsgB9vLMYrBmTNnpo5r3UaE3CAAgRABxCBEqOL7nGwv68x01Eazi2kid2TgW6TWY9wy1fFsGSKSQQACDQggBg1guYfmYnsZclaTety8eXN6Ve5bQLYde9WagSsGwksHnprGLkr7xMKWQ6e45K4j1gwSGipJIRBBADGIgFR3SA62lyExkPrF3FqqlpuxYuDeWuq7XVXzVMZuOdyF78RwkRwCEKgggBjMQdPA9nIOgkgVIDAwAcRg4AA0Pb3v3nu5/fLKlSssvjaFyfEQgMCUAGKQYWPA9jLDoFFkCIycAGIw8gBRPAhAAAJ9EEAM+qDMOSAAAQiMnABiMPIAUTwIQAACfRBADPqgzDkgAAEIjJwAYjDyAFE8CEAAAn0QQAwSKedqe2kfRBvaiGbo8yc2AZJDYC4IIAYJYczZ9pIOOCHwJIXAHBJADBKCmrPtJWKQEHiSQmAOCSAGCUHNxfZSqmgNeHTPIN0ozp0yamNHGbKrbLL3UcyxdRaeCSElKQQWlgBikBD6XGwvRQiOHz8+3flTO9sqMTh48OCerS1CdpTu9+5GdqHvrRg1teB0d0NNCCdJIbDQBBCDDsI/ZttLn52kbmxXJQZN7ChPnz5dLC8vTw3tLU45j7zqvl9aWpo6qcV6K1RZeK6urnYQTbKAwGISQAw6jvvYbC9lkfvChQv7NrGrupuoyuLSh0nsKNfX1722mXq8b7trN68U1zXJi/WPjhsx2S0kAcRgBmEfk+1lF2JQZ0cZ6uxD39vOXP7f1I8ZMZhBAybLhSSAGLQMey62l22miawDWciOMvV725nHThO5DmmMDFo2YpJBwBBADBKaQy62l+5dT6EF5KZ2lE0XmF1PBncBuYkFJyODhAZMUgggBt21gRxsL6W2TW4tdcVA0ofsKN3vb9y4UdgF3brv3Sv7mFtLrV0mI4Pu2jM5LS4BRgZzEHtsL+cgiFQBAgMTQAwGDkDT02N72ZQYx0MAAjEEEIMYSiM7BtvLkQWE4kBgDgggBnMQRKoAAQhAIJUAYpBKkPQQgAAE5oAAYjAHQaQKEIAABFIJIAapBEkPAQhAYA4IIAZzEESqAAEIQCCVAGKQSpD0EIAABOaAAGKQEMSmT77Kpm32yVn31KHv7fFNzq0PpUl6Ma7Z2NhIqDVJIQCBeSSAGPQUVdliYWVlpbIjDn3vFrOJGJw/f77Y3d0ttra2eqotp4EABHIjgBj0FLFQZx/6HjHoKVCcBgILSgAxSAi8zyDG581rN15zLSXl9FXfN9mwrerYqg3iYvKu8xkOeR4nYCUpBCAwAAHEIAG6KwaS1b1798ocXW/e0JW/+31oW+g632B3/yJ3mijVZziUPgEpSSEAgYEIIAYJ4F0xqPPmbSIGPkMaKaZ06vKSBWA9txrCqAhpdeyxVgyqzGhs+STvqrpI/ocOHdrneRyqXwJmkkIAAj0QQAwSIFf5CGuW7tV77AKyjip8RRPfYVkIdn2D6461YlBlQ2mP8S1ON/EpTkBKUghAYCACiEEC+FmKQZ3vsBTZds6hYxGDhCCTFAILQgAxSAj0rMQg5CtsxaDKN9hWq800UZXPcIxPcQJSkkIAAgMRQAwSwM9KDKRIMgdvvYBVAPShsTrfYPdY3wJyis+wWzb1V7h9+3axtLSUQJSkEIDAUAQQgwTyTcTArgO4i71SBN/3db7DId9guwDse+gs5tbSOp9hbi1NaDgkhcAICSAGIwwKRYIABCDQNwHEoG/inA8CEIDACAkgBiMMCkWCAAQg0DcBxKBv4pwPAhCAwAgJIAYjDApFggAEINA3AcSgb+KcDwIQgMAICSAGIwwKRYIABCDQNwHEoG/inA8CEIDACAkgBolB8W0q527lIKcIWVo2cS5rWuRQ3vb7pq5ooXo1LSvHQwACwxBADBK46zYM9oli9Ru2TwCPfXvntmIw9nolhJakEFg4AohBQsgfffTR4uzZs8Xa2tqeXEQkLly4UOzs7JSfj73TRAwSGgFJITAnBBCDhECKGIiNZZ3RvM/SUjpf2XBuc3OzPLts8La8vFzo9JJ2znW2k3Ju2WxOXjIKOXXq1DS9WyV3mqgurc/XoImVZ2jPo6p6Y7GZ0BBJCoEOCCAGCRDd9YKqXTvdkYF0zq4XchMLTenMjx8/Xjqe6chje3s7SgxCaV0xkPxjrTxjrDp99Q6dQ75XwWWH1IQGS1II1BBADDpoHvZKW7Oz6wg+MfDZStqRQch20rdO4Vu4lvLUWWTqGoemdcUg1soz1qrTl1+orq7Ijn3arYMmRRYQ6J0AYtAxcu0U7RWwTwyqzGNk2+g620npGO16hBa/7o4h/S4mbaz9pZTT1quJVWfd1thWvOT/Mn3k83fe3d2tnZ7rOKxkB4G5J4AYzCDErlPZoohByH6zTuR8AoEYzKBxkiUEKgggBi2bRp01pU696PRGl2KgtpN9TRPVjWBsvZpYdcaODLDYbNk4SQaBFgQQgxbQNIneOeNOY7idf5diIB1paBHYrZK9InfvgNI6VK0ZxIqBnLOJVWfd9FadpScLyAkNlqQQqCGAGCQ2D+2cbDbugqhraRmaLgl9L+fy3R5648aNYnV1dV+NUm8trbqST7XqlILG1BWLzcRGSnIIRBBADCIgjf0QnZaqEoP/9YUvlFX4qle/uvyb+/uxx4PyQSBHAohBZlHTuXnb8csdQFeuXJk+8WyrdG8iBJ98/PHyo4effrq8Es/9/QsnThQP/9IvZRY5iguBcRNADMYdH2/p3Kkp90Eum+h3Dh8uvvYv/IXyoz/81V8tHpj8/dq3vz379w++970ZRo4iQ2C8BBCD8camk5L9wUc+UrzyscfKvO6++93lX+1Ic3/fCSAygQAESgKIAQ0BAhCAAAQQA9oABCAAAQgwMqANQAACEIAA00S0AQhAAAIQYM2ANgABCEAAAiwgp7aBkLewm3+dX3AoL3dLCTW2cc9R5amQWteu0uOZ3BVJ8oFAtwS4m6hbnpW5pe7B74pBld2mOJ65eyX1VMXgaVIZBE/AARCAQGsCiEFrdM0SpnaEMWJQzvtNnjCuMrlpVuLuj05l0H2JyBECEFACiEFCW3CtKqUTbuIXbE/dZDM52aTONzJwxcDntby0tFTuLio2mfqyW23LZ9bTWZ52tmY6oU3j6vLWc7rGP76yJISFpBCAQAsCiEELaFMlNVfh0vHKK9Yv2D2te+Vf53FcJQayR9Hm5ua0DD6vZden2G4Jfffu3eLQoUOFXXew5wp5HLvf666mysS3tbcVH7anTmiMJIVAIgHEIAGgOzKI9Qv2nbKJT7HPc1nztOsFkqctU5UBje2kbZ2sSY8Khc+CUs59+vTpYnl5eY+QaJkkHx2RrKysFBsbG0VMWRJCQ1IIQKAhAcSgITB7uG+aqGrv/9B8eROf4rppoqryyefulboea32P7f/tFFHI43h9fd3rV2zL4/NMxt84oQGSFAIdEkAMEmDOoxjYK/bHJhvc6dqEiEGdx3GV0CAGCQ2MpBDokQBikAB7FmIQ43HcdmQQOzWj+cttqrp+EPI4Dn0vmGM8k0MjqIRwkRQCEKghgBgkNI9ZiIF6HMsdN3pXj+tT3FYMtEOWB9Z2dnbKmvsWbfUz1ych5HEcs8CsawaxZUkID0khAIEGBBCDBrDcQ5uIgc8v2ObX1a2ldXnqd6HbQ/Uq310Q1w7c3grqHuPmbR3ZYjyTx/4EdUJzISkERk0AMRhJeD77j/5RWZLX/d2/W/4d8r3eRbTzwz9cHHzJUazv8owkLBQDAgtDADEYQailo/3Chz5U3JuU5TXf9V1liYZ8/6H/9J+Kq5MFYe0HHAAAIABJREFU45+ePKA2RHlUEEcQGooAgYUhgBiMINR3Jg96PfzMM2VJnn/iidKn+MDEvL7v93c++cniG9/2tvK8v/kf/kOx9OY391+exx8vlm7cGEFUKAIEFosAYjCyeL/4iU+UJXrZW95S/l209yMLB8WBwMIQQAwWJtRUFAIQgEA1AcSA1gEBCEAAAgViQCOAAAQgAAHEgDYAAQhAAAITL5TJRmFyR+MgL3nQKvSQUdUOnb4HorQS+gStrZTvPJK3vPRpXHu83RahSRnqdhSV/Otwa7nPnTtX7uwZMqrJ0Qoz1vZSt+Oui7PwrOPtmvzExqbuOC1PF3mllC+m3db9HmI2CNTnTULtdpDOo4OTxrbFDk6VRRaDioE86Xry5ElvZ6z0qrZeUOMW6TTtS3+ktrHrE7Xaydq8ZWsG93P53hUDn5mMrwyxW0W4rUN/ePaJ3VALinE/U4EZUPOn1Wi675DGra7sVbz1aWfLMzY2McfFHKNi5Ws7qeWLabd6fru1iXzm24LE7lZrReTq1aulEdJY3fNCv5Gq75u2xbbnySndoGKgna5sf2y3fnY7d9+Pydd5uq5cNh/f8ToykB+W2wnHiEFVnlUuZHUNI2ajNzd9jBhImtAIo68G2/QHaP0UxA/B96rrlN3zpXbgMe3SLeOsyifnCbVbXwev5XP3kfIdq2W/detWsbu7u8cBr682M6vzNG2LsyrHmPIdXAzkCunSpUuVDa3JjynU6bkNXvOWqx+7eZuKlG6q1qQMsR2O2wh8YtDVfkVuPrnYXiIG/q4itt2Gfg9qOiRncX8btj36HPCqLkys7au9wMKCdUzdvr8sg4tB6Adf17nKSEA6ctndM5SPVN/dk9/m7bqCxYwMJE9bBnk/KzGQfLuwwszJ9jJm6mxRp4l09FnVbk+cOLHPwrSuO3LFwHfhZNufTwzkMxUAdxoMC1bEIIpA3RVMrBjETLO4Biw2b7fxpoiBjDJ8r7rFUN/8eNdWmDF+BmOzvZTy1K2j1C3kuuliFoZV0H0xtGtLqXnZjlPbSpM8remQXI1rXbXdpoqB+5sMrT25ouSOrrFgjeoKBz1o8JGB/vguXrzoXTfoWgysW5ebt92vP0UM2qwZyJWYvOyCeNdWmDnaXvq42F+MG0Oto2/BM3bUFnNczDG+keIsyudrt3We1L4ex44EfO1ER2lVC8m+Czo7ana/z7EtDtpT93DyrMXAXQQKzZFWrRmsra2VqLXByxW8TD/1tWYg9Th27Fih5dC4DyEGY7S9dKfi6sRAp+7Epc03MogR6piOPuaYqmlDvcruqnxV7bbu9+COEu1vw11TsrxlxKGmS/bzWYjBGNtiD33yYKcYhRi0mSbq6m4it3OwBiw6LVD1w+/ybiJfh9d0mijU0cVME9kObAy2l6FOt+p7vVPMPkMSystO14RYpubVdfl87bbubiL57sqVK9PbuvXY973vfcXy8rJ3as53S6q9cPEZHekFlfsbz7EtDtZL93TiwcUgtPBb9aOres5Ar2pinzPw/eg1j5AYdPmcQd2aQZdWmK515ZhtL1MWkH1ubakdeGhE4vvNVp1zFuVz262UR9qoezWvD/TZkYmKgXTeViRsnewIxDeKlWP14U4VJ33vu+DLqS321B8PeprBxaBuCkCvUn2LeXWLsfYqSelWPYFc9wyDFYPYMtQtAkpZqhZDZ3lrqdvCcrG9TBEDqbN2ejrPHRubGNHoIq+uy6e83Ico9Ty2HVQ9gSwPmNX9tnw+2Co6ct7Nzc3paexvrmr0n0tbHLSX7unkg4uBNIa6h8564jD4aXwjpC/95/9cGt284s/+2bJ8fb3/1EMPlVMFv/FLv1QsHzjQ2/ndIMSIweCBowAlgdB6XVtMoZmDtvmSbj+BQcUgZjuKRQma2/F9aWI9+cI731nuZfTmiQuabCAlLmiTD2b+/ur3fm/x7L//98WP/5f/0sv5yvpN6iX1++MTtzV9xdwuvCjtY+z1nJUYhGYOxs4lp/INKgahe8hzAtlFWe1Gdd8zuaPpwZf2Xfrdd7+7vPJ68Md+rDzNrN5/cXKe//2Hfqg8x//3+tcXB//JP5np+Wx95ERveO97i9dM7gKSl05t+PaN6oI1eXRLoGsxsJvkhTaz7LYmi5vboGKwuNib1fzzE2GQl3aU8/6+GR2OhgAEuiCAGHRBkTwgAAEIZE4AMcg8gBQfAhCAQBcEEIMuKJIHBCAAgcwJIAaZB5DiQwACEOiCAGLQBUXygAAEIJA5AcQg8wBSfAhAAAJdEEAMuqBIHhCAAAQyJ4AYZB5Aig8BCECgCwKIQRcUyQMCEIBA5gQQg8wDSPEhAAEIdEEAMeiCInlAAAIQyJwAYpB5ACk+BCAAgS4IIAZdUCQPCEAAApkTQAwyDyDFhwAEINAFAcSgC4rkAQEIQCBzAohB5gGk+BCAAAS6IIAYdEGRPCAAAQhkTgAxyDyAFB8CEIBAFwQQgy4okgcEIACBzAmMTgyufs3f9iI99qX3ZY6a4kMAAhAYLwHEYLyxoWQQgAAEeiOAGPSGmhNBAAIQGC8BxGC8saFkEIAABHojgBj0hpoTQQACEBgvAcRgvLGhZBCAAAR6IzA6MdCa611F3EXUW1vgRBCAwAITQAwWOPhUHQIQgIASQAxoCxCAAAQgUCAGNAIIQAACEEAMaAMQgAAEIFAgBjQCCEAAAhBADGgDEIAABCAwIcCaAc0AAhCAAAQQA9oABCAAAQgwMqANQAACEIAA00S0AQhAAAIQEAKsGdAOIAABCEAAMaANQAACEIDAiEcGBAcCEIAABPojMNppov4QcCYIQAACEEAMaAMQgAAEIDDeNQNiAwEIQAAC/RFgZNAfa84EAQhAYLQEBhWDRx99tLh586YXzrVr14ojR450Bu6BBx4oNE/7/65O8OSTTxbr6+udlrmrspEPBCAAgRCBwcXg7Nmzxdra2p5yPvvss8XRo0eLGzduFKurq6E6RH0/CwHQEz/11FPFrVu3io2NjaiycBAEIACBsREYpRgIJLnSXllZ6ayDnaUYSN63b98ulpaWxhZfygMBCEAgikBWYiACsb29Pa2Y7YDv3LlTLC8v76n0uXPnpmLimyaSg2UE4r4OHjxY7OzslB+H8pVRzKVLl4qtra0o4BwEAQhAYIwERikGvmkiEQJ5aaf73HPPFYcOHZpOJblX/m4eMWsG2vHb9YpQvlKuY8eO7ZvqGmOwKRMEIACBKgKDi0HVArJdL9CO/969e3vqcf78+fL96dOn903RaMeu+cSIgRxz+fLlaccuebhTP3X50swgAAEI5EpgcDGwC8h6Ne/eSaSf+yCfOHFizxSNe4eS7w4i3/qBO/Jwz1WXb5cL3bk2JMoNAQjkTWBUYiAo5c6cU6dO7bmTSMTgzJkz03l8H3LtrHWdwJ3yqRsZyAjjypUr3vxj8kUM8v4RUHoIQGDgjeqko/XdWiqfy0sXcXWaqOqOHR052GkkTRMaGaj4+PJumi8NCgIQgECuBEY3MhCQ2pHb+XuZxpH1BRUIOU6u9mUkIFNFsphsO3T5Tl51YnDgwIE9i9BuEH0i5ObLAnKuTZ9yQwAClsAoxUAKKFM3m5ub085cPnNvLbViocdr5WTq5uTJk8Xx48fL20t900RyS6i9VdWCUWEJ5RszhUWTgwAEIDB2AoOKwdjhxJaPh85iSXEcBCAwVgKIQQeRYTuKDiCSBQQgMCgBxKAj/LLoffHiRTaq64gn2UAAAv0SQAz65c3ZIAABCIySAGIwyrBQKAhAAAL9EkAM+uXN2SAAAQiMkgBiMMqwUCgIQAAC/RJADPrlzdkgAAEIjJIAYjDKsFAoCEAAAv0SQAwSeDd1T5Onlat8nUN56fd1T01LVdxdXGOrFzp/KJ+h04fKx/cQgEA9AcSgpxaSauPp62xdb4WUqqR25innlrRDnz+1/KSHQO4EEIOeIogYBK5KJhsLuj4WPYWG00AAAnJBNtn2ea99GFiiCfg2v7Oeytq52Q32rL+yPZF7ZWzNdGRDPvF4cDvLqpGB7uYqG/3JSzbdk1fII1rPo+WyPg0hL2hb/tCxkn+ofnV+1776uY500UHkQAhAoCSAGCQ0BFcMJCvVVvVC0N1PQyMDm5d0lLrbquSpHWMTMXBFJ+TlrFtza3nrPKSlTE08pt1jQ/VzXedczwkpa5WoJoSTpBBYaAKIQUL4XTGwW2qXSjvptPTqOlYM1GPBDthc1zYtct3IoAsvZy1zE4/pRx55pNY3Wsou3hNV9dP6u2ZDlp/rVZ0QQpJCAAIvEUAMEppCnZWmioGdKlpZWSm9FXwvzUs6wQsXLuyz4GyygFy3GNvEy1muyK9evdrYY1rr5ztXqH6SVqba3NlL8ZXY3d0ty8Jic0KjJSkEKgggBglNIycxaOPlbMUgJr0KX92xiEFCgyMpBGZIADFIgDsLMehqmsiuL7T1ctapmcOHD++7Wq/ymPZd2dtjQ/WLnSbizqOEhktSCHgIIAYJzWIWYiAPpcmVtSyQypSIvNosINvOMsbLWReQfQvgd+/ejfaY9nXmmrcdOdTVz/W79i0gIwYJDZekEEAMum0DTcRAr86lBL67ebu+tdTtLENezrooK7ew6ssu4sak13OGjpX8U28tdesXWqDvNvLkBoH5I8DIYCQx/b33vKcsyet/9EfLv7m9FzH5f7/v+4pve//7eyn///y1Xyte8Wf+zJ7oiQhVLdCPJMwUAwKjJYAYjCA0Oo0ygqJkWQQZaclU2PXr14u1tbUs60ChITA0AcRg6AhMzv+JP/fnioeffloeTCief+IJmUcqHn7mmbJkY39/dnJ1/hOf/GTxHX/xLxY/98//eW/lPTDh9fKHH55GT0YFvuchRhBeigCBLAggBiML04uf+lRZopc99FD5l/f1PEYWPooDgWwJIAbZho6CQwACEOiOAGLQHUtyggAEIJAtAcQg29BRcAhAAALdEUAMumNJThCAAASyJYAYJISu6YZpXdhe6hPKN2/e9Jbc3e0zoXozSVrHYCYnJFMIQCCKAGIQhSn9oNQnZF2/g7Nnz+67p163bRirX1Eqg/QokAMEIFBFADHoqW2kdoQxYiBVaTpa6an65WlSGfRZVs4FgUUjgBgkRHwo20vZ18c3MnDFoMoesspS0nUYk/xktGH9FersKLXD397enlK1Tm/6uXUpC+WXEB6SQgACDQggBg1guYcOZXtZJQa6QZxOE/nsIessJX27k9pzuWl1N1Tr5iaMdLdVd+tsd2QQsrdMCA1JIQCBhgQQg4bA7OFD2V66DmK2THa9wLWH9G1l7U7f2DqpraZc3atQ+BzIJA/ZCmJ5ebnwLWBLPmJYb8UgpiwJoSEpBCDQkABi0BBYnRi42yrbjjU0X97E9rJumqiqfPK5z+RGPreWkvb/dorIbsHtIjtx4kSxvr7utau0x1oGMWVJCA1JIQCBhgQQg4bA5l0M7BX7Y489Nl2bkM77zJkz+7yZlUdV544YJDQwkkKgRwKIQQLsJuY2sSODkC2kPmdQtYBcNzKInZrRkYcY3ei0T1VaPV/oezmOaaKExkZSCMyYAGKQAHgWYhBje9l2mkg7ZHlgbWdnp6y5aylpP7N3/fjSymd6x5KYysQsMK+srEwNaEL2lgmhISkEINCQAGLQEFjbaaIubS9TxEA7dd/tn+5V/uXLl/c92ObeCuoe436vdxpJ3j4GdbeWhkZTCaEjKQQg4BBADEbSJL700Y+W5jZf87a3lSUa8r3eRfQbv/iLxTe/852DlEfDgpXlSBooxZh7AojBCEKM7eX+IGBlOYKGSREWigBiMIJw//ab3lQ8+OM/Xpbk7g/+YHFv8vcN//Sf9v7+E3fvFo9M9jyS18cuXCje8uCD/Zfn7/yd4o9/+tNlGbCyHEHjpAgLQwAxGFmoP/8v/kVZotd893eXfxft/cjCQXEgsDAEEIOFCTUVhQAEIFBNADGgdUAAAhCAQIEY0AggAAEIQAAxoA1AAAIQgMDkzvbJLXxy8wqvFgSaGsnkYHupzxgIjnPnzk2fFm6Bp0zSlFHb85AOAhBII4AYpPGLTp36NG2M01kXtpd219LoynEgBCCQPQHEoKcQ9iEGXVyJIwY9NQhOA4GREUAMEgIyj7aXds8i62BWtZeR63PgTi2500R1exHpsUePHp1GxfWISAgXSSEAgRoCiEFC85g320txI3NHBnU7kQq6Q4cO7XE3czt/1+BH0qgtprtjqm7LoctYKjQ+97SEsJEUAhDwEEAMEprFPNpeWjFQj4Iqq0txOHPFwMWpjNSnwe3Y7fSZa9Op015259OEcJEUAhBgZDCbNjALPwPpLC9M9gVSvwEtecwCclVHLB4J8oqxmrRiELK6lCt8O+0j4qBX/W655b1M//iEZXd3t0znu/OIu5Fm03bJFQL7+gtuLW3fKBZBDOqsLi05Kxx23UAZIQbt2xkpIdAHAaaJEijPQgyGtr30TRM1mbN3vZKbThO5C8aMDBIaKEkh0IAAYtAAVt00TGiKI3RrqTsNJJaTOuWiUzHaUaY4nYWsJn0LyNYmUxio1eXhw4fLqR8rFu6Cs7uAXGe5GWKYECqSQgACAQKIQUITaTIyyMX20vecQZ3Vpd4RpBjddYM2t5bqGocKj4pgSFATQklSCCw8AcRg4ZtAXgCwwcwrXpQ2HwKIwUhi9anv+q6yJA996EPlX97v5SFM5FbX69evF2trayOJGsWAwPwQQAxGEEs8kMNBkFtSscEMc+IICLQlgBi0Jddhut/7+3+/eP0/+Af3RwQnT94fIXz4w7yfELBsOkROVhCAgEMAMaBJQAACEIAAfga0AQhAAAIQwNyGNgABCEAAAhMCTBPRDCAAAQhAADGgDUAAAhCAACODpDbQdN+cFA/kpIKSGAIQgECAANNEPTWR0FYKTYWlp2JzGghAYEEIIAY9BRox6Ak0p4EABFoRQAxaYbufqGsP5MuXLxenTp2alsjdzjnkHyw+Apubm2V62UlUXsvLy3tqaL0GQv7FCWhICgEIZEYAMUgIWNceyNqJixex6//rbg3t8w+Wba+tQ5o79aR5io2kvEL+xQloSAoBCGRGADFICFjXHsgyMrCbsEn+VR23FLvOP/jOnTuFiIp9yWcyUqjLMwEHSSEAgYwJIAYJwWviZ9BmzSDVMlKrJmY4YiqjL+sPsL29XX7s8y9OQENSCEAgMwKIQULAxi4GKgK6TqAjA3ctosq/OAENSSEAgcwIIAYJAetLDNQX2fUidqeJbCevHbxs/awv8QOQdQJXDPR71784AQ1JIQCBzAggBgkB60sMxAYy5F3sLhZrx28FRH0TRAzkFfIvTkBDUghAIDMCiEFCwJqIQVMPZClWqn+wmMHoraaSnywcn5z4JRw/frzY2NgoQv7FoXWOBHQkhQAERkYAMRhZQMZWHDyHxxYRygOB2RBADGbDdS5yxXN4LsJIJSAQRQAxiMK0mAfhObyYcafWi0kAMVjMuFNrCEAAAnsIIAY0CAhAAAIQwNyGNgABCEAAApjb0AYgAAEIQGBCgGkimgEEIAABCAwrBvJQlbvFghsTd5M1/d7d4dOmcx+mku9855G85WW3fdZ87ANXTcpQdazma7eHcOuq5da9hELuZ/r9pUuXCt1wztem225CFzp/6PcTSh/6vi5/faCurh1I+rp4uNtyxMau7jgtTxd5pZQvpl0rX9/vxW2nwnt3d7fY2tqahkX3upIP6tq1JqizfQ21Jfk+pb2MIX1MHYc8ZtCRgdzHLk/E+jpjhSI/qrNnz+7Z2lkDa41a7PGyQ6dvTx73eHcjNxsIVwxiy1BV3lCQ7fbSq6urocPL730/jjb5VJ0s9ccXqkRq/rrlRl1HVBUP6+2gvGNjF3NczDEqVr62lVo++Q34fh/uU+VSTvHBsJ2865Uh5fSJgRx39erV8kKkar8rbQNdPM2e2l5C7TH0/dDnD5Uv9ftBxUAKL41kfX29kP13fK+qH5Wv05PGeeHCBa+4+I7XkYH8cGSrBtsJx4hBVZ6+H3coUL69hEJpFl0MlH/d6LKuU/Z1jDGxi+noY46pEwP9baysrJRbh4SOtW0ltl37Onjbecv/VSR8x2odb926tW/U4LZdxCD0ax7++8HFQK6AZJrDXpm4DbvqB+o2sJByuw1aG7Nc3Ygg2BFKjBik/GDd0FdtLGevuOzUg1pkuldkVSMDYdPUFlPSuFacVjTtNIHWx16NuvEIlb+trSdisLc1xbbr0O/FGiS5vx3bXu/evbvPNc+WyMZV3fiGbo+htqviqz4gvt9b0/bqmk0N3/3vLcHgYhC6uqu7wtJhqghJKB+ptrtFs81bOz51GosVA1uGJldvTcVAyqobzKkI+YbndWLQxBZTRkm6y6l2tu7UhduZ1H0fKn8bW8+YKbFFnSbSC6iqdi3rSK7taV3n5IqB78LKts/QyEDKNWR7DLXdWbTXsXX+bnkGFwMpUN0VSqwYxEyzuHv827zdjixFDKyrmAVet9jpm/9WLupnYOfGq4xq6sTAnj9ki6li4I48lMvp06drbTVt+lD5Y/0afPyEkTvF544sq+LhpotZGHavGO257KgoNS/JN6V8KgZV7TpVDNzfrK4zVK3f+EbxQ7XHRx55JMoStur3ltJexywIoxAD+eFcvHjRu27QtRicOXNmOh3k5m09A1LEIGbe2W0UcqUlL50ftiIpV+a+tZAmawYhwfXZYvo6Wnck5OscVUD0nKHySx7irVB3B0tV+X3cXDGw8dDO0bfg2cU8v567bV6zKJ+vXYuYix926G4+rY8dCfiMk6ouTjR9kyldV0hte3IFsk17tOuTvnPNsr0iBgECbcWgSQOTIlStGejUkDZouWKRdQRdvJvFIqRFIvU4duyY944p+SGEGqdt3HUjg6pbFatsMUNioD+kuvQx5U8RA0nr6xDqOmW9ivVdeccIeUxHH3OMCql7zq7LV9Wu6y4Q3JG2/e24c+W2LVfdxhzzW41pT3ViEJNefwN1x4Z+b6ntdayCMIqRQeiq1fcD7epuIjdvnx9w1Q+7y7uJfB1a19NETW0xfXHRH/Xhw4f3Xc27tpqx5Y8ddre5mq+KnXwuL3vTQEoH7v7AU/Pquny+dl13N5F8d+XKlSkfPfZ973tfOaLwTc35bkmNHRnE2LR21R59nbltu11Na4Zutx2bKAwuBqGF36ofld6NYKdVBK5etcQ+Z+ATGs1Dr3iblCG2E3AbQt2agVz5S772fnAtY5O7ieyxIVtMOacuICtL/cHKlZPvDhI93p0miil/U1tP4ZeygKz1t/PWsbGLOS7mmKqRgXw+i/K57VrOIzFzr+b1gT7b4asYyGjZioRtx3YEoqPtWDHosz36Lj7cthv6vbVpr2Pr/N3yDC4GdUN8/bH4FgDrFmPtVZBWuOoJ5LpRhxWD2DLULRxKWaoWO/u4tdQVjpAtpu/WUssxJn2TW2NDt+rFCp9t5HWdspbfnTqo+tFq7GI6+th20Gf5tLN2H0Zz4yj1r1q/kTvY6n57biepLF3bV99Vfkx7cm91btseQ+dy+542t5ba9trFcxazFpPBxSD00NmsAYwlf98I6cu//dvFy9/0puKBV76yLGZu7+UH/+sf/Whx6G1vm0n5Y0YGY4kv5RieQOjOs1mXcOwWsoOKQcx2FLMO0Fjydzu2P/qt3yqef/zx4mUPPVQ8/MwzxYuf+lRW73978kT3N37rtxb/z5//88W3/7t/13n5RSBjbiceS3wpx7AEhr5wyMFCdlAxGFqph22e+89uN6o7PVm8e813f3fZiX7xV36lePGzny1e89f/evG/Pv3p0b9/z8/9XPHPPvGJ4vjkwbXLk1tGuy7/l65fL97/9rcXm5ub3v13xhZXyjMsAZ0SarthYxelz8FCdlAx6ALyvObxpf/4H4uvmVxVy+vuD/1Q8VWT6aLX/fAP835CwLKZ1/hTLwj0TQAx6Js454MABCAwQgKIwQiDQpEgAAEI9E0AMeibOOeDAAQgMEICiMEIg0KRIAABCPRNADHomzjngwAEIDBCAojByILS1gdZt3yo2q45dnfKoXDE+uPifbw/Qvq0sG8/Iz3a9wRsX97HQ7WptueNbYtt8x9rOsRgRJFp82CMfay/amuD0F7zQyNo+qg+3sf+iLk7cdqjXMbu3jty7Cy8j4duW03P37QtNs1/zMcjBiOKTpsnamPEQKpYtzPs0Aia/gBDmxtKfWax7XjsnkSp22D7Ou7YPKXuIU/vPr2Ph25bTc/ftC02zX/MxyMGI4pO6mZ1dZ2VFQPd8VWe4JWXTiFVbRTnWlLqVaQ13KnbZE6Or8tbNj+Tl7VBrMsPMageGYhohDy9QxcGXXkf24sQMS/Sl92sMfe2OKLuI7koiEEywu4yCImBdPZ1PshVYqDz7Dq3LD9A13/W7fDtlIFvu2p7Ljet1kN/9O737t717tVYXVnEVDxmOq2KhWsDGRpF2Oj2MTLoqny646zr6Z1qd9nU+1i3hta24PPJzrktdvfrHz4nxGD4GExLkOqDXLdtst2S2O0oqqanbCdtrybtlbkKhW/LY6lYnb2iXoHa88SURa848T4u9mwnbcVqLN7HblvTUaK6CM5DWxxRF5JUFMQgCV+3iVN9kGOuXO3QXe0yfS5Tcpy9CrT/l1GDThH5vCOUilyFrq+ve/2NLTkrBjFl0bLJX9fcSPN1WczCW9gX/dgY9FE+6y2gjPv2PvZNSVkPE/f7mPiPrS122wsMlxtiMBz7PWeWH2uqD3JsR9TmB2iv2B977LFCFzTlx3vmzJk99pG2YlU/7lQxkPR4H+9tvG78x+B9PAsxGGNbHEk3klQMxCAJX7eJU32Q24pB7NSM5n/q1KnponPoDqjQ9+60QdOyuPaKVSMD+7n8H+/j3WJra2tfA+7a+zhmmihkx+q2EXk/prZsN3csAAAGYUlEQVTYbS8wXG6IwXDs95051Qe5rRjoj01uSdRO0nfPuX7mW/CzaSU/61Eds8Csc8gxZUlZQJ6Ft7ANZGwMqo6bRfmG9D7WBWS9Y836aMvNAFUm97m0xRF1H8lFQQySEXaXQehuIr0i0qeMXV/W2I6o6tbC0O2hvo5Ka++mdX1y3e/t4q/rj6uCoLecynv7BHWKGEheeB/fj1of3sfuraNuLHNvi939+ofPCTEYPgbTEvjun/+9H/3R8vvXv+c95d8h32v5dn7wB4uDFy8OUh45aYwYjCisC12U0DMNbeHEPGvSNu9FTYcYjCjybid39+/9veIPP/KRsoSvfMc7yr9/8Mu/PNj7n/31Xy+u/eqvFv/XN31Tr+WR21ZfNan/6//hPyzrHrMOMaKwLnRRZiUGdTcPLDTwhMojBgnwZpHUblT3ff/23xYHfuEXZAK+eOGJJ8rTHXj66fJvn+/v/M7vFN8w8TOW128991yx9HVf1+v5i4kYvPCX/lLxdRMh0qmNc+fOVd5WOou4kGc7Al2LgV4wSWnGvvliO2LDpUIMhmPf6Mwv3r1bHv+yBx8s/y7a+0awOBgCEGhMADFojIwEEIAABOaPAGIwfzGlRhCAAAQaE0AMGiMjAQQgAIH5I4AYzF9MqREEIACBxgQQg8bIZptgrLaX9i6OLu7k6eouE2ww97fHRbPBHGvbnG1P0X3uiEH3TFvn2OZhqhinsy5sL+vcsVpXuKOE2GD6QS6KDeaY22ZHTbyXbBCDXjDHnaTNw1QxYiBnT70SH/MPLuZpVGwwbxSrLz0rIu3Bbhueuw3mmNtm3C9/HEchBuOIQ1mKWe5NlGp7afcJsg5mVfsHuT4H7tSSK051+yLpsdY60e50iRhUjwwWwQZzzG1zRN1LsCiIQRBRfweExGAo20vZXdK9+qrbiVSIHTp0aM8Tom7nb9+HbC5150udC3d3voyZXsMG84E9rmg6MsjdBnPsbbO/3iP9TIhBOsPOchiz7aUVg6o5enVqi+lgVAwOHDiwTzjcaQzfnvjymWusjg3mYtpgjr1tdtZBzDgjxGDGgJtkn4vtZcjqUkxT7LSPiINrpKJiIHxk+sfnoby7e9+Axbfe4X7mY2fZ92Ez6Yt17LbifZRvEWwwx9g2m/QBQx6LGAxJ35x77LaX9uorZHVpkdofp1036FoM5JzYYO5tzItig5lD2xxJN1NbDMRgRFEas+2lbyjeZNdIV0CaThPZBWMJmTsyCF2BV30vn8sLG8x8bTDH3jZH1MUgBrkEY8y2l74F5Cqry8OHD5dTP1Ys3EVidwG5zuYwNE2UsoA8C5vJuumpqraIDebtoq0N5pjbZi59T3mBNZmrvZdTgee5rKG7iaTu+iCR/L9P20vfvdx1Vpf6oJvGy103aHNr6ZEjR6bht+lTxEAyxAbzPtZcbTDH3DZz6q8QgxFFy3e//Bcnhi7y+tq3v738y/u9PIRJjBiMKMwLXRQR8acnlqmPT6xT57E95xxcxGBE0XM7Nen4n3/88bKEDz/zTPn3eXE8mwzmeP/MVCDbPLk9orAvTFGkPf+xb/u24v9+1auKd129Op/tefJ7/YbPfjbLmCIGIwub3ahu/ad+qnjD+99fLpZ++nu/t7S/fNPP/ExZ4kV+LzObv/s3/2b5o8MGc2QNuKY4v/W61xXf+LnPFb/wIz9S/Kmf/Mm5a8/yO33jBz5QvPo7vzOfoJiSIgaZhO0LH/5wWdJXnzxZ/l3095mEjWJWEJj39ptj4BGDHKNGmSEAAQh0TAAx6Bgo2UEAAhDIkQBikGPUKDMEIACBjgkgBh0DJTsIQAACORJADHKMGmWGAAQg0DEBxKBjoGQHAQhAIEcCiEGOUaPMEIAABDomgBh0DJTsIAABCORIADHIMWqUGQIQgEDHBBCDjoGSHQQgAIEcCSAGOUaNMkMAAhDomABi0DFQsoMABCCQIwHEIMeoUWYIQAACHRNADDoGSnYQgAAEciSAGOQYNcoMAQhAoGMCiEHHQMkOAhCAQI4EEIMco0aZIQABCHRMADHoGCjZQQACEMiRAGKQY9QoMwQgAIGOCSAGHQMlOwhAAAI5EkAMcowaZYYABCDQMQHEoGOgZAcBCEAgRwKIQY5Ro8wQgAAEOiaAGHQMlOwgAAEI5EgAMcgxapQZAhCAQMcE/n+x7Kr2aC0ZSgAAAABJRU5ErkJggg==;" vertex="1" parent="1">
          <mxGeometry x="48" y="110" width="273.32" height="529" as="geometry" />
        </mxCell>
      </root>
    </mxGraphModel>
  </diagram>
</mxfile>
